%TF.GenerationSoftware,KiCad,Pcbnew,(5.1.10-1-10_14)*%
%TF.CreationDate,2022-01-10T15:26:04+01:00*%
%TF.ProjectId,E16 BMS Master,45313620-424d-4532-904d-61737465722e,rev?*%
%TF.SameCoordinates,Original*%
%TF.FileFunction,Paste,Top*%
%TF.FilePolarity,Positive*%
%FSLAX46Y46*%
G04 Gerber Fmt 4.6, Leading zero omitted, Abs format (unit mm)*
G04 Created by KiCad (PCBNEW (5.1.10-1-10_14)) date 2022-01-10 15:26:04*
%MOMM*%
%LPD*%
G01*
G04 APERTURE LIST*
%ADD10R,1.900000X0.800000*%
%ADD11R,2.000000X7.875000*%
G04 APERTURE END LIST*
D10*
%TO.C,Q3*%
X195454400Y-145694400D03*
X192454400Y-146644400D03*
X192454400Y-144744400D03*
%TD*%
%TO.C,Q2*%
X195889500Y-135372900D03*
X192889500Y-136322900D03*
X192889500Y-134422900D03*
%TD*%
%TO.C,Q1*%
X195657600Y-118872000D03*
X192657600Y-119822000D03*
X192657600Y-117922000D03*
%TD*%
D11*
%TO.C,Y1*%
X183591200Y-148138900D03*
X183591200Y-160013900D03*
%TD*%
%TO.C,R13*%
G36*
G01*
X180325600Y-119700200D02*
X180325600Y-118450200D01*
G75*
G02*
X180575600Y-118200200I250000J0D01*
G01*
X181375600Y-118200200D01*
G75*
G02*
X181625600Y-118450200I0J-250000D01*
G01*
X181625600Y-119700200D01*
G75*
G02*
X181375600Y-119950200I-250000J0D01*
G01*
X180575600Y-119950200D01*
G75*
G02*
X180325600Y-119700200I0J250000D01*
G01*
G37*
G36*
G01*
X177225600Y-119700200D02*
X177225600Y-118450200D01*
G75*
G02*
X177475600Y-118200200I250000J0D01*
G01*
X178275600Y-118200200D01*
G75*
G02*
X178525600Y-118450200I0J-250000D01*
G01*
X178525600Y-119700200D01*
G75*
G02*
X178275600Y-119950200I-250000J0D01*
G01*
X177475600Y-119950200D01*
G75*
G02*
X177225600Y-119700200I0J250000D01*
G01*
G37*
%TD*%
%TO.C,R9*%
G36*
G01*
X147102400Y-146979800D02*
X147102400Y-145729800D01*
G75*
G02*
X147352400Y-145479800I250000J0D01*
G01*
X148152400Y-145479800D01*
G75*
G02*
X148402400Y-145729800I0J-250000D01*
G01*
X148402400Y-146979800D01*
G75*
G02*
X148152400Y-147229800I-250000J0D01*
G01*
X147352400Y-147229800D01*
G75*
G02*
X147102400Y-146979800I0J250000D01*
G01*
G37*
G36*
G01*
X144002400Y-146979800D02*
X144002400Y-145729800D01*
G75*
G02*
X144252400Y-145479800I250000J0D01*
G01*
X145052400Y-145479800D01*
G75*
G02*
X145302400Y-145729800I0J-250000D01*
G01*
X145302400Y-146979800D01*
G75*
G02*
X145052400Y-147229800I-250000J0D01*
G01*
X144252400Y-147229800D01*
G75*
G02*
X144002400Y-146979800I0J250000D01*
G01*
G37*
%TD*%
%TO.C,R7*%
G36*
G01*
X167065800Y-133310800D02*
X168315800Y-133310800D01*
G75*
G02*
X168565800Y-133560800I0J-250000D01*
G01*
X168565800Y-134360800D01*
G75*
G02*
X168315800Y-134610800I-250000J0D01*
G01*
X167065800Y-134610800D01*
G75*
G02*
X166815800Y-134360800I0J250000D01*
G01*
X166815800Y-133560800D01*
G75*
G02*
X167065800Y-133310800I250000J0D01*
G01*
G37*
G36*
G01*
X167065800Y-130210800D02*
X168315800Y-130210800D01*
G75*
G02*
X168565800Y-130460800I0J-250000D01*
G01*
X168565800Y-131260800D01*
G75*
G02*
X168315800Y-131510800I-250000J0D01*
G01*
X167065800Y-131510800D01*
G75*
G02*
X166815800Y-131260800I0J250000D01*
G01*
X166815800Y-130460800D01*
G75*
G02*
X167065800Y-130210800I250000J0D01*
G01*
G37*
%TD*%
%TO.C,R6*%
G36*
G01*
X170673600Y-120716200D02*
X170673600Y-119466200D01*
G75*
G02*
X170923600Y-119216200I250000J0D01*
G01*
X171723600Y-119216200D01*
G75*
G02*
X171973600Y-119466200I0J-250000D01*
G01*
X171973600Y-120716200D01*
G75*
G02*
X171723600Y-120966200I-250000J0D01*
G01*
X170923600Y-120966200D01*
G75*
G02*
X170673600Y-120716200I0J250000D01*
G01*
G37*
G36*
G01*
X167573600Y-120716200D02*
X167573600Y-119466200D01*
G75*
G02*
X167823600Y-119216200I250000J0D01*
G01*
X168623600Y-119216200D01*
G75*
G02*
X168873600Y-119466200I0J-250000D01*
G01*
X168873600Y-120716200D01*
G75*
G02*
X168623600Y-120966200I-250000J0D01*
G01*
X167823600Y-120966200D01*
G75*
G02*
X167573600Y-120716200I0J250000D01*
G01*
G37*
%TD*%
%TO.C,R5*%
G36*
G01*
X189499400Y-144692800D02*
X188249400Y-144692800D01*
G75*
G02*
X187999400Y-144442800I0J250000D01*
G01*
X187999400Y-143642800D01*
G75*
G02*
X188249400Y-143392800I250000J0D01*
G01*
X189499400Y-143392800D01*
G75*
G02*
X189749400Y-143642800I0J-250000D01*
G01*
X189749400Y-144442800D01*
G75*
G02*
X189499400Y-144692800I-250000J0D01*
G01*
G37*
G36*
G01*
X189499400Y-147792800D02*
X188249400Y-147792800D01*
G75*
G02*
X187999400Y-147542800I0J250000D01*
G01*
X187999400Y-146742800D01*
G75*
G02*
X188249400Y-146492800I250000J0D01*
G01*
X189499400Y-146492800D01*
G75*
G02*
X189749400Y-146742800I0J-250000D01*
G01*
X189749400Y-147542800D01*
G75*
G02*
X189499400Y-147792800I-250000J0D01*
G01*
G37*
%TD*%
%TO.C,R4*%
G36*
G01*
X189601000Y-134532800D02*
X188351000Y-134532800D01*
G75*
G02*
X188101000Y-134282800I0J250000D01*
G01*
X188101000Y-133482800D01*
G75*
G02*
X188351000Y-133232800I250000J0D01*
G01*
X189601000Y-133232800D01*
G75*
G02*
X189851000Y-133482800I0J-250000D01*
G01*
X189851000Y-134282800D01*
G75*
G02*
X189601000Y-134532800I-250000J0D01*
G01*
G37*
G36*
G01*
X189601000Y-137632800D02*
X188351000Y-137632800D01*
G75*
G02*
X188101000Y-137382800I0J250000D01*
G01*
X188101000Y-136582800D01*
G75*
G02*
X188351000Y-136332800I250000J0D01*
G01*
X189601000Y-136332800D01*
G75*
G02*
X189851000Y-136582800I0J-250000D01*
G01*
X189851000Y-137382800D01*
G75*
G02*
X189601000Y-137632800I-250000J0D01*
G01*
G37*
%TD*%
%TO.C,R3*%
G36*
G01*
X188452600Y-119822800D02*
X189702600Y-119822800D01*
G75*
G02*
X189952600Y-120072800I0J-250000D01*
G01*
X189952600Y-120872800D01*
G75*
G02*
X189702600Y-121122800I-250000J0D01*
G01*
X188452600Y-121122800D01*
G75*
G02*
X188202600Y-120872800I0J250000D01*
G01*
X188202600Y-120072800D01*
G75*
G02*
X188452600Y-119822800I250000J0D01*
G01*
G37*
G36*
G01*
X188452600Y-116722800D02*
X189702600Y-116722800D01*
G75*
G02*
X189952600Y-116972800I0J-250000D01*
G01*
X189952600Y-117772800D01*
G75*
G02*
X189702600Y-118022800I-250000J0D01*
G01*
X188452600Y-118022800D01*
G75*
G02*
X188202600Y-117772800I0J250000D01*
G01*
X188202600Y-116972800D01*
G75*
G02*
X188452600Y-116722800I250000J0D01*
G01*
G37*
%TD*%
%TO.C,C4*%
G36*
G01*
X170775200Y-124551201D02*
X170775200Y-123251199D01*
G75*
G02*
X171025199Y-123001200I249999J0D01*
G01*
X171850201Y-123001200D01*
G75*
G02*
X172100200Y-123251199I0J-249999D01*
G01*
X172100200Y-124551201D01*
G75*
G02*
X171850201Y-124801200I-249999J0D01*
G01*
X171025199Y-124801200D01*
G75*
G02*
X170775200Y-124551201I0J249999D01*
G01*
G37*
G36*
G01*
X167650200Y-124551201D02*
X167650200Y-123251199D01*
G75*
G02*
X167900199Y-123001200I249999J0D01*
G01*
X168725201Y-123001200D01*
G75*
G02*
X168975200Y-123251199I0J-249999D01*
G01*
X168975200Y-124551201D01*
G75*
G02*
X168725201Y-124801200I-249999J0D01*
G01*
X167900199Y-124801200D01*
G75*
G02*
X167650200Y-124551201I0J249999D01*
G01*
G37*
%TD*%
M02*
