%TF.GenerationSoftware,KiCad,Pcbnew,(5.1.10-1-10_14)*%
%TF.CreationDate,2022-01-10T15:26:04+01:00*%
%TF.ProjectId,E16 BMS Master,45313620-424d-4532-904d-61737465722e,rev?*%
%TF.SameCoordinates,Original*%
%TF.FileFunction,Legend,Bot*%
%TF.FilePolarity,Positive*%
%FSLAX46Y46*%
G04 Gerber Fmt 4.6, Leading zero omitted, Abs format (unit mm)*
G04 Created by KiCad (PCBNEW (5.1.10-1-10_14)) date 2022-01-10 15:26:04*
%MOMM*%
%LPD*%
G01*
G04 APERTURE LIST*
%ADD10C,0.300000*%
%ADD11C,0.120000*%
%ADD12C,0.150000*%
G04 APERTURE END LIST*
D10*
X119017028Y-153962342D02*
X118802742Y-154033771D01*
X118445600Y-154033771D01*
X118302742Y-153962342D01*
X118231314Y-153890914D01*
X118159885Y-153748057D01*
X118159885Y-153605200D01*
X118231314Y-153462342D01*
X118302742Y-153390914D01*
X118445600Y-153319485D01*
X118731314Y-153248057D01*
X118874171Y-153176628D01*
X118945600Y-153105200D01*
X119017028Y-152962342D01*
X119017028Y-152819485D01*
X118945600Y-152676628D01*
X118874171Y-152605200D01*
X118731314Y-152533771D01*
X118374171Y-152533771D01*
X118159885Y-152605200D01*
X117517028Y-154033771D02*
X117517028Y-152533771D01*
X117159885Y-152533771D01*
X116945600Y-152605200D01*
X116802742Y-152748057D01*
X116731314Y-152890914D01*
X116659885Y-153176628D01*
X116659885Y-153390914D01*
X116731314Y-153676628D01*
X116802742Y-153819485D01*
X116945600Y-153962342D01*
X117159885Y-154033771D01*
X117517028Y-154033771D01*
X116088457Y-153605200D02*
X115374171Y-153605200D01*
X116231314Y-154033771D02*
X115731314Y-152533771D01*
X115231314Y-154033771D01*
X118981314Y-156512342D02*
X118767028Y-156583771D01*
X118409885Y-156583771D01*
X118267028Y-156512342D01*
X118195600Y-156440914D01*
X118124171Y-156298057D01*
X118124171Y-156155200D01*
X118195600Y-156012342D01*
X118267028Y-155940914D01*
X118409885Y-155869485D01*
X118695600Y-155798057D01*
X118838457Y-155726628D01*
X118909885Y-155655200D01*
X118981314Y-155512342D01*
X118981314Y-155369485D01*
X118909885Y-155226628D01*
X118838457Y-155155200D01*
X118695600Y-155083771D01*
X118338457Y-155083771D01*
X118124171Y-155155200D01*
X116624171Y-156440914D02*
X116695600Y-156512342D01*
X116909885Y-156583771D01*
X117052742Y-156583771D01*
X117267028Y-156512342D01*
X117409885Y-156369485D01*
X117481314Y-156226628D01*
X117552742Y-155940914D01*
X117552742Y-155726628D01*
X117481314Y-155440914D01*
X117409885Y-155298057D01*
X117267028Y-155155200D01*
X117052742Y-155083771D01*
X116909885Y-155083771D01*
X116695600Y-155155200D01*
X116624171Y-155226628D01*
X115267028Y-156583771D02*
X115981314Y-156583771D01*
X115981314Y-155083771D01*
X119481314Y-158705200D02*
X118767028Y-158705200D01*
X119624171Y-159133771D02*
X119124171Y-157633771D01*
X118624171Y-159133771D01*
X117409885Y-159133771D02*
X118124171Y-159133771D01*
X118124171Y-157633771D01*
X116052742Y-159133771D02*
X116552742Y-158419485D01*
X116909885Y-159133771D02*
X116909885Y-157633771D01*
X116338457Y-157633771D01*
X116195600Y-157705200D01*
X116124171Y-157776628D01*
X116052742Y-157919485D01*
X116052742Y-158133771D01*
X116124171Y-158276628D01*
X116195600Y-158348057D01*
X116338457Y-158419485D01*
X116909885Y-158419485D01*
X115624171Y-157633771D02*
X114767028Y-157633771D01*
X115195600Y-159133771D02*
X115195600Y-157633771D01*
X108319771Y-153982971D02*
X109176914Y-153982971D01*
X108748342Y-153982971D02*
X108748342Y-152482971D01*
X108891200Y-152697257D01*
X109034057Y-152840114D01*
X109176914Y-152911542D01*
X107748342Y-152625828D02*
X107676914Y-152554400D01*
X107534057Y-152482971D01*
X107176914Y-152482971D01*
X107034057Y-152554400D01*
X106962628Y-152625828D01*
X106891200Y-152768685D01*
X106891200Y-152911542D01*
X106962628Y-153125828D01*
X107819771Y-153982971D01*
X106891200Y-153982971D01*
X106462628Y-152482971D02*
X105962628Y-153982971D01*
X105462628Y-152482971D01*
X108534057Y-155104400D02*
X108676914Y-155032971D01*
X108891200Y-155032971D01*
X109105485Y-155104400D01*
X109248342Y-155247257D01*
X109319771Y-155390114D01*
X109391200Y-155675828D01*
X109391200Y-155890114D01*
X109319771Y-156175828D01*
X109248342Y-156318685D01*
X109105485Y-156461542D01*
X108891200Y-156532971D01*
X108748342Y-156532971D01*
X108534057Y-156461542D01*
X108462628Y-156390114D01*
X108462628Y-155890114D01*
X108748342Y-155890114D01*
X107819771Y-156532971D02*
X107819771Y-155032971D01*
X106962628Y-156532971D01*
X106962628Y-155032971D01*
X106248342Y-156532971D02*
X106248342Y-155032971D01*
X105891200Y-155032971D01*
X105676914Y-155104400D01*
X105534057Y-155247257D01*
X105462628Y-155390114D01*
X105391200Y-155675828D01*
X105391200Y-155890114D01*
X105462628Y-156175828D01*
X105534057Y-156318685D01*
X105676914Y-156461542D01*
X105891200Y-156532971D01*
X106248342Y-156532971D01*
X107676914Y-157582971D02*
X108391200Y-157582971D01*
X108462628Y-158297257D01*
X108391200Y-158225828D01*
X108248342Y-158154400D01*
X107891200Y-158154400D01*
X107748342Y-158225828D01*
X107676914Y-158297257D01*
X107605485Y-158440114D01*
X107605485Y-158797257D01*
X107676914Y-158940114D01*
X107748342Y-159011542D01*
X107891200Y-159082971D01*
X108248342Y-159082971D01*
X108391200Y-159011542D01*
X108462628Y-158940114D01*
X107176914Y-157582971D02*
X106676914Y-159082971D01*
X106176914Y-157582971D01*
D11*
%TO.C,C12*%
X112263600Y-113944452D02*
X112263600Y-112521948D01*
X110443600Y-113944452D02*
X110443600Y-112521948D01*
%TO.C,U5*%
X156006800Y-156100600D02*
X152146800Y-156100600D01*
X152146800Y-156100600D02*
X152146800Y-155855600D01*
X156006800Y-156100600D02*
X159866800Y-156100600D01*
X159866800Y-156100600D02*
X159866800Y-155855600D01*
X156006800Y-144330600D02*
X152146800Y-144330600D01*
X152146800Y-144330600D02*
X152146800Y-144575600D01*
X156006800Y-144330600D02*
X159866800Y-144330600D01*
X159866800Y-144330600D02*
X159866800Y-144575600D01*
X159866800Y-144575600D02*
X161681800Y-144575600D01*
%TO.C,U4*%
X176916400Y-121666000D02*
X176916400Y-119716000D01*
X176916400Y-121666000D02*
X176916400Y-123616000D01*
X182036400Y-121666000D02*
X182036400Y-119716000D01*
X182036400Y-121666000D02*
X182036400Y-125116000D01*
%TO.C,R14*%
X116742800Y-142224136D02*
X116742800Y-143678264D01*
X118562800Y-142224136D02*
X118562800Y-143678264D01*
%TO.C,R12*%
X182254536Y-116937200D02*
X183708664Y-116937200D01*
X182254536Y-115117200D02*
X183708664Y-115117200D01*
%TO.C,R11*%
X182711736Y-128824400D02*
X184165864Y-128824400D01*
X182711736Y-127004400D02*
X184165864Y-127004400D01*
%TO.C,R10*%
X175213600Y-131810136D02*
X175213600Y-133264264D01*
X177033600Y-131810136D02*
X177033600Y-133264264D01*
%TO.C,R8*%
X175529864Y-153572800D02*
X174075736Y-153572800D01*
X175529864Y-155392800D02*
X174075736Y-155392800D01*
%TO.C,D3*%
X207642400Y-141817600D02*
X203342400Y-141817600D01*
X203342400Y-141817600D02*
X203342400Y-139817600D01*
X203342400Y-139817600D02*
X207642400Y-139817600D01*
%TO.C,D2*%
X207337600Y-131352800D02*
X203037600Y-131352800D01*
X203037600Y-131352800D02*
X203037600Y-129352800D01*
X203037600Y-129352800D02*
X207337600Y-129352800D01*
%TO.C,D1*%
X206474000Y-110931200D02*
X202174000Y-110931200D01*
X202174000Y-110931200D02*
X202174000Y-108931200D01*
X202174000Y-108931200D02*
X206474000Y-108931200D01*
%TO.C,C11*%
X134980000Y-158394348D02*
X134980000Y-159816852D01*
X136800000Y-158394348D02*
X136800000Y-159816852D01*
%TO.C,C10*%
X122271200Y-143662452D02*
X122271200Y-142239948D01*
X120451200Y-143662452D02*
X120451200Y-142239948D01*
%TO.C,C9*%
X119486000Y-158394348D02*
X119486000Y-159816852D01*
X121306000Y-158394348D02*
X121306000Y-159816852D01*
%TO.C,C8*%
X131170000Y-158394348D02*
X131170000Y-159816852D01*
X132990000Y-158394348D02*
X132990000Y-159816852D01*
%TO.C,C7*%
X138586800Y-158394348D02*
X138586800Y-159816852D01*
X140406800Y-158394348D02*
X140406800Y-159816852D01*
%TO.C,C6*%
X183946748Y-140864000D02*
X185369252Y-140864000D01*
X183946748Y-139044000D02*
X185369252Y-139044000D01*
%TO.C,C5*%
X183946748Y-137206400D02*
X185369252Y-137206400D01*
X183946748Y-135386400D02*
X185369252Y-135386400D01*
%TO.C,C3*%
X140000400Y-119532452D02*
X140000400Y-118109948D01*
X138180400Y-119532452D02*
X138180400Y-118109948D01*
%TO.C,C2*%
X127512400Y-158394348D02*
X127512400Y-159816852D01*
X129332400Y-158394348D02*
X129332400Y-159816852D01*
%TO.C,C1*%
X123499200Y-158394348D02*
X123499200Y-159816852D01*
X125319200Y-158394348D02*
X125319200Y-159816852D01*
%TO.C,C12*%
D12*
X113560742Y-112590342D02*
X113608361Y-112542723D01*
X113655980Y-112399866D01*
X113655980Y-112304628D01*
X113608361Y-112161771D01*
X113513123Y-112066533D01*
X113417885Y-112018914D01*
X113227409Y-111971295D01*
X113084552Y-111971295D01*
X112894076Y-112018914D01*
X112798838Y-112066533D01*
X112703600Y-112161771D01*
X112655980Y-112304628D01*
X112655980Y-112399866D01*
X112703600Y-112542723D01*
X112751219Y-112590342D01*
X113655980Y-113542723D02*
X113655980Y-112971295D01*
X113655980Y-113257009D02*
X112655980Y-113257009D01*
X112798838Y-113161771D01*
X112894076Y-113066533D01*
X112941695Y-112971295D01*
X112751219Y-113923676D02*
X112703600Y-113971295D01*
X112655980Y-114066533D01*
X112655980Y-114304628D01*
X112703600Y-114399866D01*
X112751219Y-114447485D01*
X112846457Y-114495104D01*
X112941695Y-114495104D01*
X113084552Y-114447485D01*
X113655980Y-113876057D01*
X113655980Y-114495104D01*
%TO.C,U5*%
X156768704Y-142947980D02*
X156768704Y-143757504D01*
X156721085Y-143852742D01*
X156673466Y-143900361D01*
X156578228Y-143947980D01*
X156387752Y-143947980D01*
X156292514Y-143900361D01*
X156244895Y-143852742D01*
X156197276Y-143757504D01*
X156197276Y-142947980D01*
X155244895Y-142947980D02*
X155721085Y-142947980D01*
X155768704Y-143424171D01*
X155721085Y-143376552D01*
X155625847Y-143328933D01*
X155387752Y-143328933D01*
X155292514Y-143376552D01*
X155244895Y-143424171D01*
X155197276Y-143519409D01*
X155197276Y-143757504D01*
X155244895Y-143852742D01*
X155292514Y-143900361D01*
X155387752Y-143947980D01*
X155625847Y-143947980D01*
X155721085Y-143900361D01*
X155768704Y-143852742D01*
%TO.C,U4*%
X182328780Y-120904095D02*
X183138304Y-120904095D01*
X183233542Y-120951714D01*
X183281161Y-120999333D01*
X183328780Y-121094571D01*
X183328780Y-121285047D01*
X183281161Y-121380285D01*
X183233542Y-121427904D01*
X183138304Y-121475523D01*
X182328780Y-121475523D01*
X182662114Y-122380285D02*
X183328780Y-122380285D01*
X182281161Y-122142190D02*
X182995447Y-121904095D01*
X182995447Y-122523142D01*
%TO.C,R14*%
X116285180Y-142308342D02*
X115808990Y-141975009D01*
X116285180Y-141736914D02*
X115285180Y-141736914D01*
X115285180Y-142117866D01*
X115332800Y-142213104D01*
X115380419Y-142260723D01*
X115475657Y-142308342D01*
X115618514Y-142308342D01*
X115713752Y-142260723D01*
X115761371Y-142213104D01*
X115808990Y-142117866D01*
X115808990Y-141736914D01*
X116285180Y-143260723D02*
X116285180Y-142689295D01*
X116285180Y-142975009D02*
X115285180Y-142975009D01*
X115428038Y-142879771D01*
X115523276Y-142784533D01*
X115570895Y-142689295D01*
X115618514Y-144117866D02*
X116285180Y-144117866D01*
X115237561Y-143879771D02*
X115951847Y-143641676D01*
X115951847Y-144260723D01*
%TO.C,R12*%
X183624457Y-118299580D02*
X183957790Y-117823390D01*
X184195885Y-118299580D02*
X184195885Y-117299580D01*
X183814933Y-117299580D01*
X183719695Y-117347200D01*
X183672076Y-117394819D01*
X183624457Y-117490057D01*
X183624457Y-117632914D01*
X183672076Y-117728152D01*
X183719695Y-117775771D01*
X183814933Y-117823390D01*
X184195885Y-117823390D01*
X182672076Y-118299580D02*
X183243504Y-118299580D01*
X182957790Y-118299580D02*
X182957790Y-117299580D01*
X183053028Y-117442438D01*
X183148266Y-117537676D01*
X183243504Y-117585295D01*
X182291123Y-117394819D02*
X182243504Y-117347200D01*
X182148266Y-117299580D01*
X181910171Y-117299580D01*
X181814933Y-117347200D01*
X181767314Y-117394819D01*
X181719695Y-117490057D01*
X181719695Y-117585295D01*
X181767314Y-117728152D01*
X182338742Y-118299580D01*
X181719695Y-118299580D01*
%TO.C,R11*%
X184081657Y-130186780D02*
X184414990Y-129710590D01*
X184653085Y-130186780D02*
X184653085Y-129186780D01*
X184272133Y-129186780D01*
X184176895Y-129234400D01*
X184129276Y-129282019D01*
X184081657Y-129377257D01*
X184081657Y-129520114D01*
X184129276Y-129615352D01*
X184176895Y-129662971D01*
X184272133Y-129710590D01*
X184653085Y-129710590D01*
X183129276Y-130186780D02*
X183700704Y-130186780D01*
X183414990Y-130186780D02*
X183414990Y-129186780D01*
X183510228Y-129329638D01*
X183605466Y-129424876D01*
X183700704Y-129472495D01*
X182176895Y-130186780D02*
X182748323Y-130186780D01*
X182462609Y-130186780D02*
X182462609Y-129186780D01*
X182557847Y-129329638D01*
X182653085Y-129424876D01*
X182748323Y-129472495D01*
%TO.C,R10*%
X174755980Y-131894342D02*
X174279790Y-131561009D01*
X174755980Y-131322914D02*
X173755980Y-131322914D01*
X173755980Y-131703866D01*
X173803600Y-131799104D01*
X173851219Y-131846723D01*
X173946457Y-131894342D01*
X174089314Y-131894342D01*
X174184552Y-131846723D01*
X174232171Y-131799104D01*
X174279790Y-131703866D01*
X174279790Y-131322914D01*
X174755980Y-132846723D02*
X174755980Y-132275295D01*
X174755980Y-132561009D02*
X173755980Y-132561009D01*
X173898838Y-132465771D01*
X173994076Y-132370533D01*
X174041695Y-132275295D01*
X173755980Y-133465771D02*
X173755980Y-133561009D01*
X173803600Y-133656247D01*
X173851219Y-133703866D01*
X173946457Y-133751485D01*
X174136933Y-133799104D01*
X174375028Y-133799104D01*
X174565504Y-133751485D01*
X174660742Y-133703866D01*
X174708361Y-133656247D01*
X174755980Y-133561009D01*
X174755980Y-133465771D01*
X174708361Y-133370533D01*
X174660742Y-133322914D01*
X174565504Y-133275295D01*
X174375028Y-133227676D01*
X174136933Y-133227676D01*
X173946457Y-133275295D01*
X173851219Y-133322914D01*
X173803600Y-133370533D01*
X173755980Y-133465771D01*
%TO.C,R8*%
X174969466Y-153115180D02*
X175302800Y-152638990D01*
X175540895Y-153115180D02*
X175540895Y-152115180D01*
X175159942Y-152115180D01*
X175064704Y-152162800D01*
X175017085Y-152210419D01*
X174969466Y-152305657D01*
X174969466Y-152448514D01*
X175017085Y-152543752D01*
X175064704Y-152591371D01*
X175159942Y-152638990D01*
X175540895Y-152638990D01*
X174398038Y-152543752D02*
X174493276Y-152496133D01*
X174540895Y-152448514D01*
X174588514Y-152353276D01*
X174588514Y-152305657D01*
X174540895Y-152210419D01*
X174493276Y-152162800D01*
X174398038Y-152115180D01*
X174207561Y-152115180D01*
X174112323Y-152162800D01*
X174064704Y-152210419D01*
X174017085Y-152305657D01*
X174017085Y-152353276D01*
X174064704Y-152448514D01*
X174112323Y-152496133D01*
X174207561Y-152543752D01*
X174398038Y-152543752D01*
X174493276Y-152591371D01*
X174540895Y-152638990D01*
X174588514Y-152734228D01*
X174588514Y-152924704D01*
X174540895Y-153019942D01*
X174493276Y-153067561D01*
X174398038Y-153115180D01*
X174207561Y-153115180D01*
X174112323Y-153067561D01*
X174064704Y-153019942D01*
X174017085Y-152924704D01*
X174017085Y-152734228D01*
X174064704Y-152638990D01*
X174112323Y-152591371D01*
X174207561Y-152543752D01*
%TO.C,D3*%
X206630495Y-143269980D02*
X206630495Y-142269980D01*
X206392400Y-142269980D01*
X206249542Y-142317600D01*
X206154304Y-142412838D01*
X206106685Y-142508076D01*
X206059066Y-142698552D01*
X206059066Y-142841409D01*
X206106685Y-143031885D01*
X206154304Y-143127123D01*
X206249542Y-143222361D01*
X206392400Y-143269980D01*
X206630495Y-143269980D01*
X205725733Y-142269980D02*
X205106685Y-142269980D01*
X205440019Y-142650933D01*
X205297161Y-142650933D01*
X205201923Y-142698552D01*
X205154304Y-142746171D01*
X205106685Y-142841409D01*
X205106685Y-143079504D01*
X205154304Y-143174742D01*
X205201923Y-143222361D01*
X205297161Y-143269980D01*
X205582876Y-143269980D01*
X205678114Y-143222361D01*
X205725733Y-143174742D01*
%TO.C,D2*%
X206325695Y-132805180D02*
X206325695Y-131805180D01*
X206087600Y-131805180D01*
X205944742Y-131852800D01*
X205849504Y-131948038D01*
X205801885Y-132043276D01*
X205754266Y-132233752D01*
X205754266Y-132376609D01*
X205801885Y-132567085D01*
X205849504Y-132662323D01*
X205944742Y-132757561D01*
X206087600Y-132805180D01*
X206325695Y-132805180D01*
X205373314Y-131900419D02*
X205325695Y-131852800D01*
X205230457Y-131805180D01*
X204992361Y-131805180D01*
X204897123Y-131852800D01*
X204849504Y-131900419D01*
X204801885Y-131995657D01*
X204801885Y-132090895D01*
X204849504Y-132233752D01*
X205420933Y-132805180D01*
X204801885Y-132805180D01*
%TO.C,D1*%
X205462095Y-112383580D02*
X205462095Y-111383580D01*
X205224000Y-111383580D01*
X205081142Y-111431200D01*
X204985904Y-111526438D01*
X204938285Y-111621676D01*
X204890666Y-111812152D01*
X204890666Y-111955009D01*
X204938285Y-112145485D01*
X204985904Y-112240723D01*
X205081142Y-112335961D01*
X205224000Y-112383580D01*
X205462095Y-112383580D01*
X203938285Y-112383580D02*
X204509714Y-112383580D01*
X204224000Y-112383580D02*
X204224000Y-111383580D01*
X204319238Y-111526438D01*
X204414476Y-111621676D01*
X204509714Y-111669295D01*
%TO.C,C11*%
X134397142Y-158462742D02*
X134444761Y-158415123D01*
X134492380Y-158272266D01*
X134492380Y-158177028D01*
X134444761Y-158034171D01*
X134349523Y-157938933D01*
X134254285Y-157891314D01*
X134063809Y-157843695D01*
X133920952Y-157843695D01*
X133730476Y-157891314D01*
X133635238Y-157938933D01*
X133540000Y-158034171D01*
X133492380Y-158177028D01*
X133492380Y-158272266D01*
X133540000Y-158415123D01*
X133587619Y-158462742D01*
X134492380Y-159415123D02*
X134492380Y-158843695D01*
X134492380Y-159129409D02*
X133492380Y-159129409D01*
X133635238Y-159034171D01*
X133730476Y-158938933D01*
X133778095Y-158843695D01*
X134492380Y-160367504D02*
X134492380Y-159796076D01*
X134492380Y-160081790D02*
X133492380Y-160081790D01*
X133635238Y-159986552D01*
X133730476Y-159891314D01*
X133778095Y-159796076D01*
%TO.C,C10*%
X123568342Y-142308342D02*
X123615961Y-142260723D01*
X123663580Y-142117866D01*
X123663580Y-142022628D01*
X123615961Y-141879771D01*
X123520723Y-141784533D01*
X123425485Y-141736914D01*
X123235009Y-141689295D01*
X123092152Y-141689295D01*
X122901676Y-141736914D01*
X122806438Y-141784533D01*
X122711200Y-141879771D01*
X122663580Y-142022628D01*
X122663580Y-142117866D01*
X122711200Y-142260723D01*
X122758819Y-142308342D01*
X123663580Y-143260723D02*
X123663580Y-142689295D01*
X123663580Y-142975009D02*
X122663580Y-142975009D01*
X122806438Y-142879771D01*
X122901676Y-142784533D01*
X122949295Y-142689295D01*
X122663580Y-143879771D02*
X122663580Y-143975009D01*
X122711200Y-144070247D01*
X122758819Y-144117866D01*
X122854057Y-144165485D01*
X123044533Y-144213104D01*
X123282628Y-144213104D01*
X123473104Y-144165485D01*
X123568342Y-144117866D01*
X123615961Y-144070247D01*
X123663580Y-143975009D01*
X123663580Y-143879771D01*
X123615961Y-143784533D01*
X123568342Y-143736914D01*
X123473104Y-143689295D01*
X123282628Y-143641676D01*
X123044533Y-143641676D01*
X122854057Y-143689295D01*
X122758819Y-143736914D01*
X122711200Y-143784533D01*
X122663580Y-143879771D01*
%TO.C,C9*%
X118903142Y-158938933D02*
X118950761Y-158891314D01*
X118998380Y-158748457D01*
X118998380Y-158653219D01*
X118950761Y-158510361D01*
X118855523Y-158415123D01*
X118760285Y-158367504D01*
X118569809Y-158319885D01*
X118426952Y-158319885D01*
X118236476Y-158367504D01*
X118141238Y-158415123D01*
X118046000Y-158510361D01*
X117998380Y-158653219D01*
X117998380Y-158748457D01*
X118046000Y-158891314D01*
X118093619Y-158938933D01*
X118998380Y-159415123D02*
X118998380Y-159605600D01*
X118950761Y-159700838D01*
X118903142Y-159748457D01*
X118760285Y-159843695D01*
X118569809Y-159891314D01*
X118188857Y-159891314D01*
X118093619Y-159843695D01*
X118046000Y-159796076D01*
X117998380Y-159700838D01*
X117998380Y-159510361D01*
X118046000Y-159415123D01*
X118093619Y-159367504D01*
X118188857Y-159319885D01*
X118426952Y-159319885D01*
X118522190Y-159367504D01*
X118569809Y-159415123D01*
X118617428Y-159510361D01*
X118617428Y-159700838D01*
X118569809Y-159796076D01*
X118522190Y-159843695D01*
X118426952Y-159891314D01*
%TO.C,C8*%
X130587142Y-158938933D02*
X130634761Y-158891314D01*
X130682380Y-158748457D01*
X130682380Y-158653219D01*
X130634761Y-158510361D01*
X130539523Y-158415123D01*
X130444285Y-158367504D01*
X130253809Y-158319885D01*
X130110952Y-158319885D01*
X129920476Y-158367504D01*
X129825238Y-158415123D01*
X129730000Y-158510361D01*
X129682380Y-158653219D01*
X129682380Y-158748457D01*
X129730000Y-158891314D01*
X129777619Y-158938933D01*
X130110952Y-159510361D02*
X130063333Y-159415123D01*
X130015714Y-159367504D01*
X129920476Y-159319885D01*
X129872857Y-159319885D01*
X129777619Y-159367504D01*
X129730000Y-159415123D01*
X129682380Y-159510361D01*
X129682380Y-159700838D01*
X129730000Y-159796076D01*
X129777619Y-159843695D01*
X129872857Y-159891314D01*
X129920476Y-159891314D01*
X130015714Y-159843695D01*
X130063333Y-159796076D01*
X130110952Y-159700838D01*
X130110952Y-159510361D01*
X130158571Y-159415123D01*
X130206190Y-159367504D01*
X130301428Y-159319885D01*
X130491904Y-159319885D01*
X130587142Y-159367504D01*
X130634761Y-159415123D01*
X130682380Y-159510361D01*
X130682380Y-159700838D01*
X130634761Y-159796076D01*
X130587142Y-159843695D01*
X130491904Y-159891314D01*
X130301428Y-159891314D01*
X130206190Y-159843695D01*
X130158571Y-159796076D01*
X130110952Y-159700838D01*
%TO.C,C7*%
X138003942Y-158938933D02*
X138051561Y-158891314D01*
X138099180Y-158748457D01*
X138099180Y-158653219D01*
X138051561Y-158510361D01*
X137956323Y-158415123D01*
X137861085Y-158367504D01*
X137670609Y-158319885D01*
X137527752Y-158319885D01*
X137337276Y-158367504D01*
X137242038Y-158415123D01*
X137146800Y-158510361D01*
X137099180Y-158653219D01*
X137099180Y-158748457D01*
X137146800Y-158891314D01*
X137194419Y-158938933D01*
X137099180Y-159272266D02*
X137099180Y-159938933D01*
X138099180Y-159510361D01*
%TO.C,C6*%
X184824666Y-142161142D02*
X184872285Y-142208761D01*
X185015142Y-142256380D01*
X185110380Y-142256380D01*
X185253238Y-142208761D01*
X185348476Y-142113523D01*
X185396095Y-142018285D01*
X185443714Y-141827809D01*
X185443714Y-141684952D01*
X185396095Y-141494476D01*
X185348476Y-141399238D01*
X185253238Y-141304000D01*
X185110380Y-141256380D01*
X185015142Y-141256380D01*
X184872285Y-141304000D01*
X184824666Y-141351619D01*
X183967523Y-141256380D02*
X184158000Y-141256380D01*
X184253238Y-141304000D01*
X184300857Y-141351619D01*
X184396095Y-141494476D01*
X184443714Y-141684952D01*
X184443714Y-142065904D01*
X184396095Y-142161142D01*
X184348476Y-142208761D01*
X184253238Y-142256380D01*
X184062761Y-142256380D01*
X183967523Y-142208761D01*
X183919904Y-142161142D01*
X183872285Y-142065904D01*
X183872285Y-141827809D01*
X183919904Y-141732571D01*
X183967523Y-141684952D01*
X184062761Y-141637333D01*
X184253238Y-141637333D01*
X184348476Y-141684952D01*
X184396095Y-141732571D01*
X184443714Y-141827809D01*
%TO.C,C5*%
X184824666Y-138503542D02*
X184872285Y-138551161D01*
X185015142Y-138598780D01*
X185110380Y-138598780D01*
X185253238Y-138551161D01*
X185348476Y-138455923D01*
X185396095Y-138360685D01*
X185443714Y-138170209D01*
X185443714Y-138027352D01*
X185396095Y-137836876D01*
X185348476Y-137741638D01*
X185253238Y-137646400D01*
X185110380Y-137598780D01*
X185015142Y-137598780D01*
X184872285Y-137646400D01*
X184824666Y-137694019D01*
X183919904Y-137598780D02*
X184396095Y-137598780D01*
X184443714Y-138074971D01*
X184396095Y-138027352D01*
X184300857Y-137979733D01*
X184062761Y-137979733D01*
X183967523Y-138027352D01*
X183919904Y-138074971D01*
X183872285Y-138170209D01*
X183872285Y-138408304D01*
X183919904Y-138503542D01*
X183967523Y-138551161D01*
X184062761Y-138598780D01*
X184300857Y-138598780D01*
X184396095Y-138551161D01*
X184443714Y-138503542D01*
%TO.C,C3*%
X141297542Y-118654533D02*
X141345161Y-118606914D01*
X141392780Y-118464057D01*
X141392780Y-118368819D01*
X141345161Y-118225961D01*
X141249923Y-118130723D01*
X141154685Y-118083104D01*
X140964209Y-118035485D01*
X140821352Y-118035485D01*
X140630876Y-118083104D01*
X140535638Y-118130723D01*
X140440400Y-118225961D01*
X140392780Y-118368819D01*
X140392780Y-118464057D01*
X140440400Y-118606914D01*
X140488019Y-118654533D01*
X140392780Y-118987866D02*
X140392780Y-119606914D01*
X140773733Y-119273580D01*
X140773733Y-119416438D01*
X140821352Y-119511676D01*
X140868971Y-119559295D01*
X140964209Y-119606914D01*
X141202304Y-119606914D01*
X141297542Y-119559295D01*
X141345161Y-119511676D01*
X141392780Y-119416438D01*
X141392780Y-119130723D01*
X141345161Y-119035485D01*
X141297542Y-118987866D01*
%TO.C,C2*%
X126929542Y-158938933D02*
X126977161Y-158891314D01*
X127024780Y-158748457D01*
X127024780Y-158653219D01*
X126977161Y-158510361D01*
X126881923Y-158415123D01*
X126786685Y-158367504D01*
X126596209Y-158319885D01*
X126453352Y-158319885D01*
X126262876Y-158367504D01*
X126167638Y-158415123D01*
X126072400Y-158510361D01*
X126024780Y-158653219D01*
X126024780Y-158748457D01*
X126072400Y-158891314D01*
X126120019Y-158938933D01*
X126120019Y-159319885D02*
X126072400Y-159367504D01*
X126024780Y-159462742D01*
X126024780Y-159700838D01*
X126072400Y-159796076D01*
X126120019Y-159843695D01*
X126215257Y-159891314D01*
X126310495Y-159891314D01*
X126453352Y-159843695D01*
X127024780Y-159272266D01*
X127024780Y-159891314D01*
%TO.C,C1*%
X122916342Y-158938933D02*
X122963961Y-158891314D01*
X123011580Y-158748457D01*
X123011580Y-158653219D01*
X122963961Y-158510361D01*
X122868723Y-158415123D01*
X122773485Y-158367504D01*
X122583009Y-158319885D01*
X122440152Y-158319885D01*
X122249676Y-158367504D01*
X122154438Y-158415123D01*
X122059200Y-158510361D01*
X122011580Y-158653219D01*
X122011580Y-158748457D01*
X122059200Y-158891314D01*
X122106819Y-158938933D01*
X123011580Y-159891314D02*
X123011580Y-159319885D01*
X123011580Y-159605600D02*
X122011580Y-159605600D01*
X122154438Y-159510361D01*
X122249676Y-159415123D01*
X122297295Y-159319885D01*
%TD*%
M02*
