M48
; DRILL file {KiCad (5.1.10-1-10_14)} date Monday, January 10, 2022 at 03:26:02 PM
; FORMAT={-:-/ absolute / inch / decimal}
; #@! TF.CreationDate,2022-01-10T15:26:02+01:00
; #@! TF.GenerationSoftware,Kicad,Pcbnew,(5.1.10-1-10_14)
; #@! TF.FileFunction,Plated,1,2,PTH
FMAT,2
INCH
T1C0.0157
T2C0.0236
T3C0.0315
T4C0.0370
T5C0.0374
T6C0.0394
T7C0.0402
T8C0.0492
T9C0.1260
%
G90
G05
T1
X4.314Y-5.94
X4.33Y-5.858
X4.3975Y-5.91
X4.878Y-5.692
X5.312Y-5.052
X5.526Y-5.26
X5.582Y-4.458
X5.598Y-5.97
X5.6212Y-6.042
X5.644Y-6.13
X5.868Y-5.698
X5.878Y-5.97
X5.882Y-5.814
X5.882Y-5.86
X5.882Y-5.912
X5.96Y-5.644
X6.148Y-4.412
X6.148Y-5.812
X6.18Y-5.862
X6.202Y-5.912
X6.23Y-6.168
X6.3055Y-5.182
X6.334Y-5.24
X6.368Y-6.172
X6.396Y-5.716
X6.4015Y-5.87
X6.43Y-5.588
X6.4595Y-5.118
X6.488Y-4.73
X6.508Y-6.126
X6.562Y-4.878
X6.814Y-4.73
X7.02Y-4.766
X7.084Y-4.974
X7.1002Y-6.172
X7.116Y-4.766
X7.146Y-5.634
X7.31Y-5.84
X7.346Y-5.284
X7.458Y-5.624
X7.47Y-4.822
T2
X5.424Y-5.9956
X5.428Y-5.502
X5.604Y-4.044
X7.914Y-4.09
T3
X6.734Y-5.586
X6.734Y-5.686
X6.734Y-5.786
X6.734Y-5.886
X6.738Y-5.078
X6.738Y-5.178
X6.738Y-5.278
X6.738Y-5.378
X7.034Y-5.586
X7.034Y-5.686
X7.034Y-5.786
X7.034Y-5.886
X7.038Y-5.078
X7.038Y-5.178
X7.038Y-5.278
X7.038Y-5.378
T4
X7.9959Y-4.56
X7.9959Y-4.6781
X7.9959Y-4.7962
X7.9959Y-4.9143
X8.114Y-4.56
X8.114Y-4.6781
X8.114Y-4.7962
X8.114Y-4.9143
T5
X4.318Y-5.346
X4.318Y-5.4444
X4.318Y-5.5429
X4.318Y-5.6413
X6.0939Y-6.344
X6.1923Y-6.344
X6.2907Y-6.344
X6.3891Y-6.344
X6.4876Y-6.344
X6.586Y-6.344
T6
X4.376Y-6.032
X4.376Y-6.132
X4.376Y-6.232
X4.476Y-6.032
X4.476Y-6.132
X4.476Y-6.232
X5.042Y-5.1848
X5.042Y-5.3423
X5.798Y-4.102
X5.798Y-4.202
X5.798Y-4.302
X5.798Y-4.402
X5.798Y-4.502
X5.798Y-4.602
X5.798Y-4.702
X5.798Y-4.802
X5.798Y-4.902
X5.798Y-5.002
X5.798Y-5.102
X5.798Y-5.202
X5.798Y-5.302
X5.798Y-5.402
X5.798Y-5.502
X6.398Y-4.102
X6.398Y-4.202
X6.398Y-4.302
X6.398Y-4.402
X6.398Y-4.502
X6.398Y-4.602
X6.398Y-4.702
X6.398Y-4.802
X6.398Y-4.902
X6.398Y-5.002
X6.398Y-5.102
X6.398Y-5.202
X6.398Y-5.302
X6.398Y-5.402
X6.398Y-5.502
X6.93Y-4.37
X6.9845Y-4.2582
X7.0391Y-4.37
X7.0936Y-4.2582
X7.1481Y-4.37
X7.2026Y-4.2582
X7.2572Y-4.37
X7.3117Y-4.2582
X7.3662Y-4.37
T7
X4.106Y-4.176
X4.2241Y-4.176
X7.9899Y-6.142
X7.9939Y-5.736
X7.9959Y-5.332
X8.108Y-6.142
X8.112Y-5.736
X8.114Y-5.332
T8
X4.626Y-4.072
X4.626Y-4.372
X4.626Y-4.572
X5.426Y-4.072
X5.426Y-4.472
X5.426Y-4.872
T9
X6.656Y-4.3141
X7.6402Y-4.3141
T0
M30
