%TF.GenerationSoftware,KiCad,Pcbnew,(5.1.10-1-10_14)*%
%TF.CreationDate,2022-01-10T15:26:04+01:00*%
%TF.ProjectId,E16 BMS Master,45313620-424d-4532-904d-61737465722e,rev?*%
%TF.SameCoordinates,Original*%
%TF.FileFunction,Soldermask,Top*%
%TF.FilePolarity,Negative*%
%FSLAX46Y46*%
G04 Gerber Fmt 4.6, Leading zero omitted, Abs format (unit mm)*
G04 Created by KiCad (PCBNEW (5.1.10-1-10_14)) date 2022-01-10 15:26:04*
%MOMM*%
%LPD*%
G01*
G04 APERTURE LIST*
%ADD10C,1.700000*%
%ADD11R,1.900000X0.800000*%
%ADD12C,1.200000*%
%ADD13O,1.700000X1.950000*%
%ADD14C,1.020000*%
%ADD15C,1.440000*%
%ADD16R,1.440000X1.440000*%
%ADD17C,1.520000*%
%ADD18R,1.520000X1.520000*%
%ADD19C,2.500000*%
%ADD20O,1.600000X1.600000*%
%ADD21R,1.600000X1.600000*%
%ADD22C,2.000000*%
%ADD23R,2.000000X2.000000*%
%ADD24R,2.000000X7.875000*%
%ADD25O,1.950000X1.700000*%
%ADD26C,3.200000*%
%ADD27C,4.000000*%
%ADD28C,1.600000*%
G04 APERTURE END LIST*
D10*
%TO.C,I2C&PWR1*%
X111150400Y-153212800D03*
X111150400Y-155752800D03*
X111150400Y-158292800D03*
X113690400Y-153212800D03*
X113690400Y-155752800D03*
G36*
G01*
X114540400Y-157692800D02*
X114540400Y-158892800D01*
G75*
G02*
X114290400Y-159142800I-250000J0D01*
G01*
X113090400Y-159142800D01*
G75*
G02*
X112840400Y-158892800I0J250000D01*
G01*
X112840400Y-157692800D01*
G75*
G02*
X113090400Y-157442800I250000J0D01*
G01*
X114290400Y-157442800D01*
G75*
G02*
X114540400Y-157692800I0J-250000D01*
G01*
G37*
%TD*%
D11*
%TO.C,Q3*%
X195454400Y-145694400D03*
X192454400Y-146644400D03*
X192454400Y-144744400D03*
%TD*%
%TO.C,Q2*%
X195889500Y-135372900D03*
X192889500Y-136322900D03*
X192889500Y-134422900D03*
%TD*%
%TO.C,Q1*%
X195657600Y-118872000D03*
X192657600Y-119822000D03*
X192657600Y-117922000D03*
%TD*%
D12*
%TO.C,J1*%
X168884400Y-159137600D03*
D13*
X154784400Y-161137600D03*
X157284400Y-161137600D03*
X159784400Y-161137600D03*
X162284400Y-161137600D03*
X164784400Y-161137600D03*
G36*
G01*
X168134400Y-160412600D02*
X168134400Y-161862600D01*
G75*
G02*
X167884400Y-162112600I-250000J0D01*
G01*
X166684400Y-162112600D01*
G75*
G02*
X166434400Y-161862600I0J250000D01*
G01*
X166434400Y-160412600D01*
G75*
G02*
X166684400Y-160162600I250000J0D01*
G01*
X167884400Y-160162600D01*
G75*
G02*
X168134400Y-160412600I0J-250000D01*
G01*
G37*
%TD*%
D14*
%TO.C,FAN1-4*%
X202155600Y-127823971D03*
X202155600Y-112824001D03*
D15*
X203095601Y-124823997D03*
X203095601Y-121823998D03*
X203095601Y-118823999D03*
X203095601Y-115824000D03*
X206095600Y-124823997D03*
X206095600Y-121823998D03*
X206095600Y-118823999D03*
D16*
X206095600Y-115824000D03*
%TD*%
D14*
%TO.C,R1*%
X202104800Y-148694389D03*
X202104800Y-142694401D03*
D17*
X203044801Y-145694400D03*
D18*
X206044800Y-145694400D03*
%TD*%
D14*
%TO.C,R2*%
X202155600Y-138432789D03*
X202155600Y-132432801D03*
D17*
X203095601Y-135432800D03*
D18*
X206095600Y-135432800D03*
%TD*%
D14*
%TO.C,INTERLOCK1*%
X202003200Y-159006789D03*
X202003200Y-153006801D03*
D17*
X202943201Y-156006800D03*
D18*
X205943200Y-156006800D03*
%TD*%
D19*
%TO.C,U1*%
X117500400Y-103428800D03*
X137820400Y-103428800D03*
X137820400Y-113588800D03*
X137820400Y-123748800D03*
X117500400Y-111048800D03*
G36*
G01*
X118125400Y-117378800D02*
X116875400Y-117378800D01*
G75*
G02*
X116250400Y-116753800I0J625000D01*
G01*
X116250400Y-115503800D01*
G75*
G02*
X116875400Y-114878800I625000J0D01*
G01*
X118125400Y-114878800D01*
G75*
G02*
X118750400Y-115503800I0J-625000D01*
G01*
X118750400Y-116753800D01*
G75*
G02*
X118125400Y-117378800I-625000J0D01*
G01*
G37*
%TD*%
D20*
%TO.C,A1*%
X147269200Y-104190800D03*
X162509200Y-104190800D03*
X147269200Y-139750800D03*
X162509200Y-106730800D03*
X147269200Y-137210800D03*
X162509200Y-109270800D03*
X147269200Y-134670800D03*
X162509200Y-111810800D03*
X147269200Y-132130800D03*
X162509200Y-114350800D03*
X147269200Y-129590800D03*
X162509200Y-116890800D03*
X147269200Y-127050800D03*
X162509200Y-119430800D03*
X147269200Y-124510800D03*
X162509200Y-121970800D03*
X147269200Y-121970800D03*
X162509200Y-124510800D03*
X147269200Y-119430800D03*
X162509200Y-127050800D03*
X147269200Y-116890800D03*
X162509200Y-129590800D03*
X147269200Y-114350800D03*
X162509200Y-132130800D03*
X147269200Y-111810800D03*
X162509200Y-134670800D03*
X147269200Y-109270800D03*
X162509200Y-137210800D03*
X147269200Y-106730800D03*
D21*
X162509200Y-139750800D03*
%TD*%
D22*
%TO.C,LS1*%
X128066800Y-131694800D03*
D23*
X128066800Y-135694800D03*
%TD*%
D24*
%TO.C,Y1*%
X183591200Y-148138900D03*
X183591200Y-160013900D03*
%TD*%
D20*
%TO.C,U3*%
X171043600Y-149504400D03*
X178663600Y-141884400D03*
X171043600Y-146964400D03*
X178663600Y-144424400D03*
X171043600Y-144424400D03*
X178663600Y-146964400D03*
X171043600Y-141884400D03*
D21*
X178663600Y-149504400D03*
%TD*%
D20*
%TO.C,U2*%
X171145200Y-136601200D03*
X178765200Y-128981200D03*
X171145200Y-134061200D03*
X178765200Y-131521200D03*
X171145200Y-131521200D03*
X178765200Y-134061200D03*
X171145200Y-128981200D03*
D21*
X178765200Y-136601200D03*
%TD*%
D25*
%TO.C,SPI1*%
X109677200Y-143288400D03*
X109677200Y-140788400D03*
X109677200Y-138288400D03*
G36*
G01*
X108952200Y-134938400D02*
X110402200Y-134938400D01*
G75*
G02*
X110652200Y-135188400I0J-250000D01*
G01*
X110652200Y-136388400D01*
G75*
G02*
X110402200Y-136638400I-250000J0D01*
G01*
X108952200Y-136638400D01*
G75*
G02*
X108702200Y-136388400I0J250000D01*
G01*
X108702200Y-135188400D01*
G75*
G02*
X108952200Y-134938400I250000J0D01*
G01*
G37*
%TD*%
%TO.C,R13*%
G36*
G01*
X180325600Y-119700200D02*
X180325600Y-118450200D01*
G75*
G02*
X180575600Y-118200200I250000J0D01*
G01*
X181375600Y-118200200D01*
G75*
G02*
X181625600Y-118450200I0J-250000D01*
G01*
X181625600Y-119700200D01*
G75*
G02*
X181375600Y-119950200I-250000J0D01*
G01*
X180575600Y-119950200D01*
G75*
G02*
X180325600Y-119700200I0J250000D01*
G01*
G37*
G36*
G01*
X177225600Y-119700200D02*
X177225600Y-118450200D01*
G75*
G02*
X177475600Y-118200200I250000J0D01*
G01*
X178275600Y-118200200D01*
G75*
G02*
X178525600Y-118450200I0J-250000D01*
G01*
X178525600Y-119700200D01*
G75*
G02*
X178275600Y-119950200I-250000J0D01*
G01*
X177475600Y-119950200D01*
G75*
G02*
X177225600Y-119700200I0J250000D01*
G01*
G37*
%TD*%
%TO.C,R9*%
G36*
G01*
X147102400Y-146979800D02*
X147102400Y-145729800D01*
G75*
G02*
X147352400Y-145479800I250000J0D01*
G01*
X148152400Y-145479800D01*
G75*
G02*
X148402400Y-145729800I0J-250000D01*
G01*
X148402400Y-146979800D01*
G75*
G02*
X148152400Y-147229800I-250000J0D01*
G01*
X147352400Y-147229800D01*
G75*
G02*
X147102400Y-146979800I0J250000D01*
G01*
G37*
G36*
G01*
X144002400Y-146979800D02*
X144002400Y-145729800D01*
G75*
G02*
X144252400Y-145479800I250000J0D01*
G01*
X145052400Y-145479800D01*
G75*
G02*
X145302400Y-145729800I0J-250000D01*
G01*
X145302400Y-146979800D01*
G75*
G02*
X145052400Y-147229800I-250000J0D01*
G01*
X144252400Y-147229800D01*
G75*
G02*
X144002400Y-146979800I0J250000D01*
G01*
G37*
%TD*%
%TO.C,R7*%
G36*
G01*
X167065800Y-133310800D02*
X168315800Y-133310800D01*
G75*
G02*
X168565800Y-133560800I0J-250000D01*
G01*
X168565800Y-134360800D01*
G75*
G02*
X168315800Y-134610800I-250000J0D01*
G01*
X167065800Y-134610800D01*
G75*
G02*
X166815800Y-134360800I0J250000D01*
G01*
X166815800Y-133560800D01*
G75*
G02*
X167065800Y-133310800I250000J0D01*
G01*
G37*
G36*
G01*
X167065800Y-130210800D02*
X168315800Y-130210800D01*
G75*
G02*
X168565800Y-130460800I0J-250000D01*
G01*
X168565800Y-131260800D01*
G75*
G02*
X168315800Y-131510800I-250000J0D01*
G01*
X167065800Y-131510800D01*
G75*
G02*
X166815800Y-131260800I0J250000D01*
G01*
X166815800Y-130460800D01*
G75*
G02*
X167065800Y-130210800I250000J0D01*
G01*
G37*
%TD*%
%TO.C,R6*%
G36*
G01*
X170673600Y-120716200D02*
X170673600Y-119466200D01*
G75*
G02*
X170923600Y-119216200I250000J0D01*
G01*
X171723600Y-119216200D01*
G75*
G02*
X171973600Y-119466200I0J-250000D01*
G01*
X171973600Y-120716200D01*
G75*
G02*
X171723600Y-120966200I-250000J0D01*
G01*
X170923600Y-120966200D01*
G75*
G02*
X170673600Y-120716200I0J250000D01*
G01*
G37*
G36*
G01*
X167573600Y-120716200D02*
X167573600Y-119466200D01*
G75*
G02*
X167823600Y-119216200I250000J0D01*
G01*
X168623600Y-119216200D01*
G75*
G02*
X168873600Y-119466200I0J-250000D01*
G01*
X168873600Y-120716200D01*
G75*
G02*
X168623600Y-120966200I-250000J0D01*
G01*
X167823600Y-120966200D01*
G75*
G02*
X167573600Y-120716200I0J250000D01*
G01*
G37*
%TD*%
%TO.C,R5*%
G36*
G01*
X189499400Y-144692800D02*
X188249400Y-144692800D01*
G75*
G02*
X187999400Y-144442800I0J250000D01*
G01*
X187999400Y-143642800D01*
G75*
G02*
X188249400Y-143392800I250000J0D01*
G01*
X189499400Y-143392800D01*
G75*
G02*
X189749400Y-143642800I0J-250000D01*
G01*
X189749400Y-144442800D01*
G75*
G02*
X189499400Y-144692800I-250000J0D01*
G01*
G37*
G36*
G01*
X189499400Y-147792800D02*
X188249400Y-147792800D01*
G75*
G02*
X187999400Y-147542800I0J250000D01*
G01*
X187999400Y-146742800D01*
G75*
G02*
X188249400Y-146492800I250000J0D01*
G01*
X189499400Y-146492800D01*
G75*
G02*
X189749400Y-146742800I0J-250000D01*
G01*
X189749400Y-147542800D01*
G75*
G02*
X189499400Y-147792800I-250000J0D01*
G01*
G37*
%TD*%
%TO.C,R4*%
G36*
G01*
X189601000Y-134532800D02*
X188351000Y-134532800D01*
G75*
G02*
X188101000Y-134282800I0J250000D01*
G01*
X188101000Y-133482800D01*
G75*
G02*
X188351000Y-133232800I250000J0D01*
G01*
X189601000Y-133232800D01*
G75*
G02*
X189851000Y-133482800I0J-250000D01*
G01*
X189851000Y-134282800D01*
G75*
G02*
X189601000Y-134532800I-250000J0D01*
G01*
G37*
G36*
G01*
X189601000Y-137632800D02*
X188351000Y-137632800D01*
G75*
G02*
X188101000Y-137382800I0J250000D01*
G01*
X188101000Y-136582800D01*
G75*
G02*
X188351000Y-136332800I250000J0D01*
G01*
X189601000Y-136332800D01*
G75*
G02*
X189851000Y-136582800I0J-250000D01*
G01*
X189851000Y-137382800D01*
G75*
G02*
X189601000Y-137632800I-250000J0D01*
G01*
G37*
%TD*%
%TO.C,R3*%
G36*
G01*
X188452600Y-119822800D02*
X189702600Y-119822800D01*
G75*
G02*
X189952600Y-120072800I0J-250000D01*
G01*
X189952600Y-120872800D01*
G75*
G02*
X189702600Y-121122800I-250000J0D01*
G01*
X188452600Y-121122800D01*
G75*
G02*
X188202600Y-120872800I0J250000D01*
G01*
X188202600Y-120072800D01*
G75*
G02*
X188452600Y-119822800I250000J0D01*
G01*
G37*
G36*
G01*
X188452600Y-116722800D02*
X189702600Y-116722800D01*
G75*
G02*
X189952600Y-116972800I0J-250000D01*
G01*
X189952600Y-117772800D01*
G75*
G02*
X189702600Y-118022800I-250000J0D01*
G01*
X188452600Y-118022800D01*
G75*
G02*
X188202600Y-117772800I0J250000D01*
G01*
X188202600Y-116972800D01*
G75*
G02*
X188452600Y-116722800I250000J0D01*
G01*
G37*
%TD*%
D14*
%TO.C,PWR1*%
X108232400Y-103070411D03*
X108232400Y-109070399D03*
D17*
X107292399Y-106070400D03*
D18*
X104292400Y-106070400D03*
%TD*%
D26*
%TO.C,H4*%
X145000000Y-160000000D03*
%TD*%
%TO.C,H3*%
X206000000Y-104000000D03*
%TD*%
%TO.C,H2*%
X190000000Y-160000000D03*
%TD*%
%TO.C,H1*%
X103000000Y-125000000D03*
%TD*%
D27*
%TO.C,CAN1*%
X169062000Y-109578000D03*
X194062000Y-109578000D03*
D28*
X185717000Y-108158000D03*
X182947000Y-108158000D03*
X180177000Y-108158000D03*
X177407000Y-108158000D03*
X187102000Y-110998000D03*
X184332000Y-110998000D03*
X181562000Y-110998000D03*
X178792000Y-110998000D03*
D21*
X176022000Y-110998000D03*
%TD*%
%TO.C,C4*%
G36*
G01*
X170775200Y-124551201D02*
X170775200Y-123251199D01*
G75*
G02*
X171025199Y-123001200I249999J0D01*
G01*
X171850201Y-123001200D01*
G75*
G02*
X172100200Y-123251199I0J-249999D01*
G01*
X172100200Y-124551201D01*
G75*
G02*
X171850201Y-124801200I-249999J0D01*
G01*
X171025199Y-124801200D01*
G75*
G02*
X170775200Y-124551201I0J249999D01*
G01*
G37*
G36*
G01*
X167650200Y-124551201D02*
X167650200Y-123251199D01*
G75*
G02*
X167900199Y-123001200I249999J0D01*
G01*
X168725201Y-123001200D01*
G75*
G02*
X168975200Y-123251199I0J-249999D01*
G01*
X168975200Y-124551201D01*
G75*
G02*
X168725201Y-124801200I-249999J0D01*
G01*
X167900199Y-124801200D01*
G75*
G02*
X167650200Y-124551201I0J249999D01*
G01*
G37*
%TD*%
M02*
