%TF.GenerationSoftware,KiCad,Pcbnew,(5.1.10-1-10_14)*%
%TF.CreationDate,2022-01-10T15:26:04+01:00*%
%TF.ProjectId,E16 BMS Master,45313620-424d-4532-904d-61737465722e,rev?*%
%TF.SameCoordinates,Original*%
%TF.FileFunction,Soldermask,Bot*%
%TF.FilePolarity,Negative*%
%FSLAX46Y46*%
G04 Gerber Fmt 4.6, Leading zero omitted, Abs format (unit mm)*
G04 Created by KiCad (PCBNEW (5.1.10-1-10_14)) date 2022-01-10 15:26:04*
%MOMM*%
%LPD*%
G01*
G04 APERTURE LIST*
%ADD10C,1.700000*%
%ADD11C,1.200000*%
%ADD12O,1.700000X1.950000*%
%ADD13C,1.020000*%
%ADD14C,1.440000*%
%ADD15R,1.440000X1.440000*%
%ADD16C,1.520000*%
%ADD17R,1.520000X1.520000*%
%ADD18C,2.500000*%
%ADD19O,1.600000X1.600000*%
%ADD20R,1.600000X1.600000*%
%ADD21C,2.000000*%
%ADD22R,2.000000X2.000000*%
%ADD23O,1.950000X1.700000*%
%ADD24C,3.200000*%
%ADD25R,1.300000X1.700000*%
%ADD26C,4.000000*%
%ADD27C,1.600000*%
G04 APERTURE END LIST*
D10*
%TO.C,I2C&PWR1*%
X111150400Y-153212800D03*
X111150400Y-155752800D03*
X111150400Y-158292800D03*
X113690400Y-153212800D03*
X113690400Y-155752800D03*
G36*
G01*
X114540400Y-157692800D02*
X114540400Y-158892800D01*
G75*
G02*
X114290400Y-159142800I-250000J0D01*
G01*
X113090400Y-159142800D01*
G75*
G02*
X112840400Y-158892800I0J250000D01*
G01*
X112840400Y-157692800D01*
G75*
G02*
X113090400Y-157442800I250000J0D01*
G01*
X114290400Y-157442800D01*
G75*
G02*
X114540400Y-157692800I0J-250000D01*
G01*
G37*
%TD*%
D11*
%TO.C,J1*%
X168884400Y-159137600D03*
D12*
X154784400Y-161137600D03*
X157284400Y-161137600D03*
X159784400Y-161137600D03*
X162284400Y-161137600D03*
X164784400Y-161137600D03*
G36*
G01*
X168134400Y-160412600D02*
X168134400Y-161862600D01*
G75*
G02*
X167884400Y-162112600I-250000J0D01*
G01*
X166684400Y-162112600D01*
G75*
G02*
X166434400Y-161862600I0J250000D01*
G01*
X166434400Y-160412600D01*
G75*
G02*
X166684400Y-160162600I250000J0D01*
G01*
X167884400Y-160162600D01*
G75*
G02*
X168134400Y-160412600I0J-250000D01*
G01*
G37*
%TD*%
D13*
%TO.C,FAN1-4*%
X202155600Y-127823971D03*
X202155600Y-112824001D03*
D14*
X203095601Y-124823997D03*
X203095601Y-121823998D03*
X203095601Y-118823999D03*
X203095601Y-115824000D03*
X206095600Y-124823997D03*
X206095600Y-121823998D03*
X206095600Y-118823999D03*
D15*
X206095600Y-115824000D03*
%TD*%
D13*
%TO.C,R1*%
X202104800Y-148694389D03*
X202104800Y-142694401D03*
D16*
X203044801Y-145694400D03*
D17*
X206044800Y-145694400D03*
%TD*%
D13*
%TO.C,R2*%
X202155600Y-138432789D03*
X202155600Y-132432801D03*
D16*
X203095601Y-135432800D03*
D17*
X206095600Y-135432800D03*
%TD*%
D13*
%TO.C,INTERLOCK1*%
X202003200Y-159006789D03*
X202003200Y-153006801D03*
D16*
X202943201Y-156006800D03*
D17*
X205943200Y-156006800D03*
%TD*%
D18*
%TO.C,U1*%
X117500400Y-103428800D03*
X137820400Y-103428800D03*
X137820400Y-113588800D03*
X137820400Y-123748800D03*
X117500400Y-111048800D03*
G36*
G01*
X118125400Y-117378800D02*
X116875400Y-117378800D01*
G75*
G02*
X116250400Y-116753800I0J625000D01*
G01*
X116250400Y-115503800D01*
G75*
G02*
X116875400Y-114878800I625000J0D01*
G01*
X118125400Y-114878800D01*
G75*
G02*
X118750400Y-115503800I0J-625000D01*
G01*
X118750400Y-116753800D01*
G75*
G02*
X118125400Y-117378800I-625000J0D01*
G01*
G37*
%TD*%
%TO.C,C12*%
G36*
G01*
X112003601Y-112333200D02*
X110703599Y-112333200D01*
G75*
G02*
X110453600Y-112083201I0J249999D01*
G01*
X110453600Y-111258199D01*
G75*
G02*
X110703599Y-111008200I249999J0D01*
G01*
X112003601Y-111008200D01*
G75*
G02*
X112253600Y-111258199I0J-249999D01*
G01*
X112253600Y-112083201D01*
G75*
G02*
X112003601Y-112333200I-249999J0D01*
G01*
G37*
G36*
G01*
X112003601Y-115458200D02*
X110703599Y-115458200D01*
G75*
G02*
X110453600Y-115208201I0J249999D01*
G01*
X110453600Y-114383199D01*
G75*
G02*
X110703599Y-114133200I249999J0D01*
G01*
X112003601Y-114133200D01*
G75*
G02*
X112253600Y-114383199I0J-249999D01*
G01*
X112253600Y-115208201D01*
G75*
G02*
X112003601Y-115458200I-249999J0D01*
G01*
G37*
%TD*%
D19*
%TO.C,A1*%
X147269200Y-104190800D03*
X162509200Y-104190800D03*
X147269200Y-139750800D03*
X162509200Y-106730800D03*
X147269200Y-137210800D03*
X162509200Y-109270800D03*
X147269200Y-134670800D03*
X162509200Y-111810800D03*
X147269200Y-132130800D03*
X162509200Y-114350800D03*
X147269200Y-129590800D03*
X162509200Y-116890800D03*
X147269200Y-127050800D03*
X162509200Y-119430800D03*
X147269200Y-124510800D03*
X162509200Y-121970800D03*
X147269200Y-121970800D03*
X162509200Y-124510800D03*
X147269200Y-119430800D03*
X162509200Y-127050800D03*
X147269200Y-116890800D03*
X162509200Y-129590800D03*
X147269200Y-114350800D03*
X162509200Y-132130800D03*
X147269200Y-111810800D03*
X162509200Y-134670800D03*
X147269200Y-109270800D03*
X162509200Y-137210800D03*
X147269200Y-106730800D03*
D20*
X162509200Y-139750800D03*
%TD*%
D21*
%TO.C,LS1*%
X128066800Y-131694800D03*
D22*
X128066800Y-135694800D03*
%TD*%
%TO.C,U5*%
G36*
G01*
X152381800Y-144985600D02*
X152381800Y-145285600D01*
G75*
G02*
X152231800Y-145435600I-150000J0D01*
G01*
X150481800Y-145435600D01*
G75*
G02*
X150331800Y-145285600I0J150000D01*
G01*
X150331800Y-144985600D01*
G75*
G02*
X150481800Y-144835600I150000J0D01*
G01*
X152231800Y-144835600D01*
G75*
G02*
X152381800Y-144985600I0J-150000D01*
G01*
G37*
G36*
G01*
X152381800Y-146255600D02*
X152381800Y-146555600D01*
G75*
G02*
X152231800Y-146705600I-150000J0D01*
G01*
X150481800Y-146705600D01*
G75*
G02*
X150331800Y-146555600I0J150000D01*
G01*
X150331800Y-146255600D01*
G75*
G02*
X150481800Y-146105600I150000J0D01*
G01*
X152231800Y-146105600D01*
G75*
G02*
X152381800Y-146255600I0J-150000D01*
G01*
G37*
G36*
G01*
X152381800Y-147525600D02*
X152381800Y-147825600D01*
G75*
G02*
X152231800Y-147975600I-150000J0D01*
G01*
X150481800Y-147975600D01*
G75*
G02*
X150331800Y-147825600I0J150000D01*
G01*
X150331800Y-147525600D01*
G75*
G02*
X150481800Y-147375600I150000J0D01*
G01*
X152231800Y-147375600D01*
G75*
G02*
X152381800Y-147525600I0J-150000D01*
G01*
G37*
G36*
G01*
X152381800Y-148795600D02*
X152381800Y-149095600D01*
G75*
G02*
X152231800Y-149245600I-150000J0D01*
G01*
X150481800Y-149245600D01*
G75*
G02*
X150331800Y-149095600I0J150000D01*
G01*
X150331800Y-148795600D01*
G75*
G02*
X150481800Y-148645600I150000J0D01*
G01*
X152231800Y-148645600D01*
G75*
G02*
X152381800Y-148795600I0J-150000D01*
G01*
G37*
G36*
G01*
X152381800Y-150065600D02*
X152381800Y-150365600D01*
G75*
G02*
X152231800Y-150515600I-150000J0D01*
G01*
X150481800Y-150515600D01*
G75*
G02*
X150331800Y-150365600I0J150000D01*
G01*
X150331800Y-150065600D01*
G75*
G02*
X150481800Y-149915600I150000J0D01*
G01*
X152231800Y-149915600D01*
G75*
G02*
X152381800Y-150065600I0J-150000D01*
G01*
G37*
G36*
G01*
X152381800Y-151335600D02*
X152381800Y-151635600D01*
G75*
G02*
X152231800Y-151785600I-150000J0D01*
G01*
X150481800Y-151785600D01*
G75*
G02*
X150331800Y-151635600I0J150000D01*
G01*
X150331800Y-151335600D01*
G75*
G02*
X150481800Y-151185600I150000J0D01*
G01*
X152231800Y-151185600D01*
G75*
G02*
X152381800Y-151335600I0J-150000D01*
G01*
G37*
G36*
G01*
X152381800Y-152605600D02*
X152381800Y-152905600D01*
G75*
G02*
X152231800Y-153055600I-150000J0D01*
G01*
X150481800Y-153055600D01*
G75*
G02*
X150331800Y-152905600I0J150000D01*
G01*
X150331800Y-152605600D01*
G75*
G02*
X150481800Y-152455600I150000J0D01*
G01*
X152231800Y-152455600D01*
G75*
G02*
X152381800Y-152605600I0J-150000D01*
G01*
G37*
G36*
G01*
X152381800Y-153875600D02*
X152381800Y-154175600D01*
G75*
G02*
X152231800Y-154325600I-150000J0D01*
G01*
X150481800Y-154325600D01*
G75*
G02*
X150331800Y-154175600I0J150000D01*
G01*
X150331800Y-153875600D01*
G75*
G02*
X150481800Y-153725600I150000J0D01*
G01*
X152231800Y-153725600D01*
G75*
G02*
X152381800Y-153875600I0J-150000D01*
G01*
G37*
G36*
G01*
X152381800Y-155145600D02*
X152381800Y-155445600D01*
G75*
G02*
X152231800Y-155595600I-150000J0D01*
G01*
X150481800Y-155595600D01*
G75*
G02*
X150331800Y-155445600I0J150000D01*
G01*
X150331800Y-155145600D01*
G75*
G02*
X150481800Y-154995600I150000J0D01*
G01*
X152231800Y-154995600D01*
G75*
G02*
X152381800Y-155145600I0J-150000D01*
G01*
G37*
G36*
G01*
X161681800Y-155145600D02*
X161681800Y-155445600D01*
G75*
G02*
X161531800Y-155595600I-150000J0D01*
G01*
X159781800Y-155595600D01*
G75*
G02*
X159631800Y-155445600I0J150000D01*
G01*
X159631800Y-155145600D01*
G75*
G02*
X159781800Y-154995600I150000J0D01*
G01*
X161531800Y-154995600D01*
G75*
G02*
X161681800Y-155145600I0J-150000D01*
G01*
G37*
G36*
G01*
X161681800Y-153875600D02*
X161681800Y-154175600D01*
G75*
G02*
X161531800Y-154325600I-150000J0D01*
G01*
X159781800Y-154325600D01*
G75*
G02*
X159631800Y-154175600I0J150000D01*
G01*
X159631800Y-153875600D01*
G75*
G02*
X159781800Y-153725600I150000J0D01*
G01*
X161531800Y-153725600D01*
G75*
G02*
X161681800Y-153875600I0J-150000D01*
G01*
G37*
G36*
G01*
X161681800Y-152605600D02*
X161681800Y-152905600D01*
G75*
G02*
X161531800Y-153055600I-150000J0D01*
G01*
X159781800Y-153055600D01*
G75*
G02*
X159631800Y-152905600I0J150000D01*
G01*
X159631800Y-152605600D01*
G75*
G02*
X159781800Y-152455600I150000J0D01*
G01*
X161531800Y-152455600D01*
G75*
G02*
X161681800Y-152605600I0J-150000D01*
G01*
G37*
G36*
G01*
X161681800Y-151335600D02*
X161681800Y-151635600D01*
G75*
G02*
X161531800Y-151785600I-150000J0D01*
G01*
X159781800Y-151785600D01*
G75*
G02*
X159631800Y-151635600I0J150000D01*
G01*
X159631800Y-151335600D01*
G75*
G02*
X159781800Y-151185600I150000J0D01*
G01*
X161531800Y-151185600D01*
G75*
G02*
X161681800Y-151335600I0J-150000D01*
G01*
G37*
G36*
G01*
X161681800Y-150065600D02*
X161681800Y-150365600D01*
G75*
G02*
X161531800Y-150515600I-150000J0D01*
G01*
X159781800Y-150515600D01*
G75*
G02*
X159631800Y-150365600I0J150000D01*
G01*
X159631800Y-150065600D01*
G75*
G02*
X159781800Y-149915600I150000J0D01*
G01*
X161531800Y-149915600D01*
G75*
G02*
X161681800Y-150065600I0J-150000D01*
G01*
G37*
G36*
G01*
X161681800Y-148795600D02*
X161681800Y-149095600D01*
G75*
G02*
X161531800Y-149245600I-150000J0D01*
G01*
X159781800Y-149245600D01*
G75*
G02*
X159631800Y-149095600I0J150000D01*
G01*
X159631800Y-148795600D01*
G75*
G02*
X159781800Y-148645600I150000J0D01*
G01*
X161531800Y-148645600D01*
G75*
G02*
X161681800Y-148795600I0J-150000D01*
G01*
G37*
G36*
G01*
X161681800Y-147525600D02*
X161681800Y-147825600D01*
G75*
G02*
X161531800Y-147975600I-150000J0D01*
G01*
X159781800Y-147975600D01*
G75*
G02*
X159631800Y-147825600I0J150000D01*
G01*
X159631800Y-147525600D01*
G75*
G02*
X159781800Y-147375600I150000J0D01*
G01*
X161531800Y-147375600D01*
G75*
G02*
X161681800Y-147525600I0J-150000D01*
G01*
G37*
G36*
G01*
X161681800Y-146255600D02*
X161681800Y-146555600D01*
G75*
G02*
X161531800Y-146705600I-150000J0D01*
G01*
X159781800Y-146705600D01*
G75*
G02*
X159631800Y-146555600I0J150000D01*
G01*
X159631800Y-146255600D01*
G75*
G02*
X159781800Y-146105600I150000J0D01*
G01*
X161531800Y-146105600D01*
G75*
G02*
X161681800Y-146255600I0J-150000D01*
G01*
G37*
G36*
G01*
X161681800Y-144985600D02*
X161681800Y-145285600D01*
G75*
G02*
X161531800Y-145435600I-150000J0D01*
G01*
X159781800Y-145435600D01*
G75*
G02*
X159631800Y-145285600I0J150000D01*
G01*
X159631800Y-144985600D01*
G75*
G02*
X159781800Y-144835600I150000J0D01*
G01*
X161531800Y-144835600D01*
G75*
G02*
X161681800Y-144985600I0J-150000D01*
G01*
G37*
%TD*%
%TO.C,U4*%
G36*
G01*
X181531400Y-120166000D02*
X181231400Y-120166000D01*
G75*
G02*
X181081400Y-120016000I0J150000D01*
G01*
X181081400Y-118366000D01*
G75*
G02*
X181231400Y-118216000I150000J0D01*
G01*
X181531400Y-118216000D01*
G75*
G02*
X181681400Y-118366000I0J-150000D01*
G01*
X181681400Y-120016000D01*
G75*
G02*
X181531400Y-120166000I-150000J0D01*
G01*
G37*
G36*
G01*
X180261400Y-120166000D02*
X179961400Y-120166000D01*
G75*
G02*
X179811400Y-120016000I0J150000D01*
G01*
X179811400Y-118366000D01*
G75*
G02*
X179961400Y-118216000I150000J0D01*
G01*
X180261400Y-118216000D01*
G75*
G02*
X180411400Y-118366000I0J-150000D01*
G01*
X180411400Y-120016000D01*
G75*
G02*
X180261400Y-120166000I-150000J0D01*
G01*
G37*
G36*
G01*
X178991400Y-120166000D02*
X178691400Y-120166000D01*
G75*
G02*
X178541400Y-120016000I0J150000D01*
G01*
X178541400Y-118366000D01*
G75*
G02*
X178691400Y-118216000I150000J0D01*
G01*
X178991400Y-118216000D01*
G75*
G02*
X179141400Y-118366000I0J-150000D01*
G01*
X179141400Y-120016000D01*
G75*
G02*
X178991400Y-120166000I-150000J0D01*
G01*
G37*
G36*
G01*
X177721400Y-120166000D02*
X177421400Y-120166000D01*
G75*
G02*
X177271400Y-120016000I0J150000D01*
G01*
X177271400Y-118366000D01*
G75*
G02*
X177421400Y-118216000I150000J0D01*
G01*
X177721400Y-118216000D01*
G75*
G02*
X177871400Y-118366000I0J-150000D01*
G01*
X177871400Y-120016000D01*
G75*
G02*
X177721400Y-120166000I-150000J0D01*
G01*
G37*
G36*
G01*
X177721400Y-125116000D02*
X177421400Y-125116000D01*
G75*
G02*
X177271400Y-124966000I0J150000D01*
G01*
X177271400Y-123316000D01*
G75*
G02*
X177421400Y-123166000I150000J0D01*
G01*
X177721400Y-123166000D01*
G75*
G02*
X177871400Y-123316000I0J-150000D01*
G01*
X177871400Y-124966000D01*
G75*
G02*
X177721400Y-125116000I-150000J0D01*
G01*
G37*
G36*
G01*
X178991400Y-125116000D02*
X178691400Y-125116000D01*
G75*
G02*
X178541400Y-124966000I0J150000D01*
G01*
X178541400Y-123316000D01*
G75*
G02*
X178691400Y-123166000I150000J0D01*
G01*
X178991400Y-123166000D01*
G75*
G02*
X179141400Y-123316000I0J-150000D01*
G01*
X179141400Y-124966000D01*
G75*
G02*
X178991400Y-125116000I-150000J0D01*
G01*
G37*
G36*
G01*
X180261400Y-125116000D02*
X179961400Y-125116000D01*
G75*
G02*
X179811400Y-124966000I0J150000D01*
G01*
X179811400Y-123316000D01*
G75*
G02*
X179961400Y-123166000I150000J0D01*
G01*
X180261400Y-123166000D01*
G75*
G02*
X180411400Y-123316000I0J-150000D01*
G01*
X180411400Y-124966000D01*
G75*
G02*
X180261400Y-125116000I-150000J0D01*
G01*
G37*
G36*
G01*
X181531400Y-125116000D02*
X181231400Y-125116000D01*
G75*
G02*
X181081400Y-124966000I0J150000D01*
G01*
X181081400Y-123316000D01*
G75*
G02*
X181231400Y-123166000I150000J0D01*
G01*
X181531400Y-123166000D01*
G75*
G02*
X181681400Y-123316000I0J-150000D01*
G01*
X181681400Y-124966000D01*
G75*
G02*
X181531400Y-125116000I-150000J0D01*
G01*
G37*
%TD*%
D19*
%TO.C,U3*%
X171043600Y-149504400D03*
X178663600Y-141884400D03*
X171043600Y-146964400D03*
X178663600Y-144424400D03*
X171043600Y-144424400D03*
X178663600Y-146964400D03*
X171043600Y-141884400D03*
D20*
X178663600Y-149504400D03*
%TD*%
D19*
%TO.C,U2*%
X171145200Y-136601200D03*
X178765200Y-128981200D03*
X171145200Y-134061200D03*
X178765200Y-131521200D03*
X171145200Y-131521200D03*
X178765200Y-134061200D03*
X171145200Y-128981200D03*
D20*
X178765200Y-136601200D03*
%TD*%
D23*
%TO.C,SPI1*%
X109677200Y-143288400D03*
X109677200Y-140788400D03*
X109677200Y-138288400D03*
G36*
G01*
X108952200Y-134938400D02*
X110402200Y-134938400D01*
G75*
G02*
X110652200Y-135188400I0J-250000D01*
G01*
X110652200Y-136388400D01*
G75*
G02*
X110402200Y-136638400I-250000J0D01*
G01*
X108952200Y-136638400D01*
G75*
G02*
X108702200Y-136388400I0J250000D01*
G01*
X108702200Y-135188400D01*
G75*
G02*
X108952200Y-134938400I250000J0D01*
G01*
G37*
%TD*%
%TO.C,R14*%
G36*
G01*
X117027800Y-143851200D02*
X118277800Y-143851200D01*
G75*
G02*
X118527800Y-144101200I0J-250000D01*
G01*
X118527800Y-144901200D01*
G75*
G02*
X118277800Y-145151200I-250000J0D01*
G01*
X117027800Y-145151200D01*
G75*
G02*
X116777800Y-144901200I0J250000D01*
G01*
X116777800Y-144101200D01*
G75*
G02*
X117027800Y-143851200I250000J0D01*
G01*
G37*
G36*
G01*
X117027800Y-140751200D02*
X118277800Y-140751200D01*
G75*
G02*
X118527800Y-141001200I0J-250000D01*
G01*
X118527800Y-141801200D01*
G75*
G02*
X118277800Y-142051200I-250000J0D01*
G01*
X117027800Y-142051200D01*
G75*
G02*
X116777800Y-141801200I0J250000D01*
G01*
X116777800Y-141001200D01*
G75*
G02*
X117027800Y-140751200I250000J0D01*
G01*
G37*
%TD*%
%TO.C,R12*%
G36*
G01*
X183881600Y-116652200D02*
X183881600Y-115402200D01*
G75*
G02*
X184131600Y-115152200I250000J0D01*
G01*
X184931600Y-115152200D01*
G75*
G02*
X185181600Y-115402200I0J-250000D01*
G01*
X185181600Y-116652200D01*
G75*
G02*
X184931600Y-116902200I-250000J0D01*
G01*
X184131600Y-116902200D01*
G75*
G02*
X183881600Y-116652200I0J250000D01*
G01*
G37*
G36*
G01*
X180781600Y-116652200D02*
X180781600Y-115402200D01*
G75*
G02*
X181031600Y-115152200I250000J0D01*
G01*
X181831600Y-115152200D01*
G75*
G02*
X182081600Y-115402200I0J-250000D01*
G01*
X182081600Y-116652200D01*
G75*
G02*
X181831600Y-116902200I-250000J0D01*
G01*
X181031600Y-116902200D01*
G75*
G02*
X180781600Y-116652200I0J250000D01*
G01*
G37*
%TD*%
%TO.C,R11*%
G36*
G01*
X184338800Y-128539400D02*
X184338800Y-127289400D01*
G75*
G02*
X184588800Y-127039400I250000J0D01*
G01*
X185388800Y-127039400D01*
G75*
G02*
X185638800Y-127289400I0J-250000D01*
G01*
X185638800Y-128539400D01*
G75*
G02*
X185388800Y-128789400I-250000J0D01*
G01*
X184588800Y-128789400D01*
G75*
G02*
X184338800Y-128539400I0J250000D01*
G01*
G37*
G36*
G01*
X181238800Y-128539400D02*
X181238800Y-127289400D01*
G75*
G02*
X181488800Y-127039400I250000J0D01*
G01*
X182288800Y-127039400D01*
G75*
G02*
X182538800Y-127289400I0J-250000D01*
G01*
X182538800Y-128539400D01*
G75*
G02*
X182288800Y-128789400I-250000J0D01*
G01*
X181488800Y-128789400D01*
G75*
G02*
X181238800Y-128539400I0J250000D01*
G01*
G37*
%TD*%
%TO.C,R10*%
G36*
G01*
X175498600Y-133437200D02*
X176748600Y-133437200D01*
G75*
G02*
X176998600Y-133687200I0J-250000D01*
G01*
X176998600Y-134487200D01*
G75*
G02*
X176748600Y-134737200I-250000J0D01*
G01*
X175498600Y-134737200D01*
G75*
G02*
X175248600Y-134487200I0J250000D01*
G01*
X175248600Y-133687200D01*
G75*
G02*
X175498600Y-133437200I250000J0D01*
G01*
G37*
G36*
G01*
X175498600Y-130337200D02*
X176748600Y-130337200D01*
G75*
G02*
X176998600Y-130587200I0J-250000D01*
G01*
X176998600Y-131387200D01*
G75*
G02*
X176748600Y-131637200I-250000J0D01*
G01*
X175498600Y-131637200D01*
G75*
G02*
X175248600Y-131387200I0J250000D01*
G01*
X175248600Y-130587200D01*
G75*
G02*
X175498600Y-130337200I250000J0D01*
G01*
G37*
%TD*%
%TO.C,R8*%
G36*
G01*
X173902800Y-153857800D02*
X173902800Y-155107800D01*
G75*
G02*
X173652800Y-155357800I-250000J0D01*
G01*
X172852800Y-155357800D01*
G75*
G02*
X172602800Y-155107800I0J250000D01*
G01*
X172602800Y-153857800D01*
G75*
G02*
X172852800Y-153607800I250000J0D01*
G01*
X173652800Y-153607800D01*
G75*
G02*
X173902800Y-153857800I0J-250000D01*
G01*
G37*
G36*
G01*
X177002800Y-153857800D02*
X177002800Y-155107800D01*
G75*
G02*
X176752800Y-155357800I-250000J0D01*
G01*
X175952800Y-155357800D01*
G75*
G02*
X175702800Y-155107800I0J250000D01*
G01*
X175702800Y-153857800D01*
G75*
G02*
X175952800Y-153607800I250000J0D01*
G01*
X176752800Y-153607800D01*
G75*
G02*
X177002800Y-153857800I0J-250000D01*
G01*
G37*
%TD*%
D13*
%TO.C,PWR1*%
X108232400Y-103070411D03*
X108232400Y-109070399D03*
D16*
X107292399Y-106070400D03*
D17*
X104292400Y-106070400D03*
%TD*%
D24*
%TO.C,H4*%
X145000000Y-160000000D03*
%TD*%
%TO.C,H3*%
X206000000Y-104000000D03*
%TD*%
%TO.C,H2*%
X190000000Y-160000000D03*
%TD*%
%TO.C,H1*%
X103000000Y-125000000D03*
%TD*%
D25*
%TO.C,D3*%
X207642400Y-140817600D03*
X204142400Y-140817600D03*
%TD*%
%TO.C,D2*%
X207337600Y-130352800D03*
X203837600Y-130352800D03*
%TD*%
%TO.C,D1*%
X206474000Y-109931200D03*
X202974000Y-109931200D03*
%TD*%
D26*
%TO.C,CAN1*%
X169062000Y-109578000D03*
X194062000Y-109578000D03*
D27*
X185717000Y-108158000D03*
X182947000Y-108158000D03*
X180177000Y-108158000D03*
X177407000Y-108158000D03*
X187102000Y-110998000D03*
X184332000Y-110998000D03*
X181562000Y-110998000D03*
X178792000Y-110998000D03*
D20*
X176022000Y-110998000D03*
%TD*%
%TO.C,C11*%
G36*
G01*
X135239999Y-160005600D02*
X136540001Y-160005600D01*
G75*
G02*
X136790000Y-160255599I0J-249999D01*
G01*
X136790000Y-161080601D01*
G75*
G02*
X136540001Y-161330600I-249999J0D01*
G01*
X135239999Y-161330600D01*
G75*
G02*
X134990000Y-161080601I0J249999D01*
G01*
X134990000Y-160255599D01*
G75*
G02*
X135239999Y-160005600I249999J0D01*
G01*
G37*
G36*
G01*
X135239999Y-156880600D02*
X136540001Y-156880600D01*
G75*
G02*
X136790000Y-157130599I0J-249999D01*
G01*
X136790000Y-157955601D01*
G75*
G02*
X136540001Y-158205600I-249999J0D01*
G01*
X135239999Y-158205600D01*
G75*
G02*
X134990000Y-157955601I0J249999D01*
G01*
X134990000Y-157130599D01*
G75*
G02*
X135239999Y-156880600I249999J0D01*
G01*
G37*
%TD*%
%TO.C,C10*%
G36*
G01*
X122011201Y-142051200D02*
X120711199Y-142051200D01*
G75*
G02*
X120461200Y-141801201I0J249999D01*
G01*
X120461200Y-140976199D01*
G75*
G02*
X120711199Y-140726200I249999J0D01*
G01*
X122011201Y-140726200D01*
G75*
G02*
X122261200Y-140976199I0J-249999D01*
G01*
X122261200Y-141801201D01*
G75*
G02*
X122011201Y-142051200I-249999J0D01*
G01*
G37*
G36*
G01*
X122011201Y-145176200D02*
X120711199Y-145176200D01*
G75*
G02*
X120461200Y-144926201I0J249999D01*
G01*
X120461200Y-144101199D01*
G75*
G02*
X120711199Y-143851200I249999J0D01*
G01*
X122011201Y-143851200D01*
G75*
G02*
X122261200Y-144101199I0J-249999D01*
G01*
X122261200Y-144926201D01*
G75*
G02*
X122011201Y-145176200I-249999J0D01*
G01*
G37*
%TD*%
%TO.C,C9*%
G36*
G01*
X119745999Y-160005600D02*
X121046001Y-160005600D01*
G75*
G02*
X121296000Y-160255599I0J-249999D01*
G01*
X121296000Y-161080601D01*
G75*
G02*
X121046001Y-161330600I-249999J0D01*
G01*
X119745999Y-161330600D01*
G75*
G02*
X119496000Y-161080601I0J249999D01*
G01*
X119496000Y-160255599D01*
G75*
G02*
X119745999Y-160005600I249999J0D01*
G01*
G37*
G36*
G01*
X119745999Y-156880600D02*
X121046001Y-156880600D01*
G75*
G02*
X121296000Y-157130599I0J-249999D01*
G01*
X121296000Y-157955601D01*
G75*
G02*
X121046001Y-158205600I-249999J0D01*
G01*
X119745999Y-158205600D01*
G75*
G02*
X119496000Y-157955601I0J249999D01*
G01*
X119496000Y-157130599D01*
G75*
G02*
X119745999Y-156880600I249999J0D01*
G01*
G37*
%TD*%
%TO.C,C8*%
G36*
G01*
X131429999Y-160005600D02*
X132730001Y-160005600D01*
G75*
G02*
X132980000Y-160255599I0J-249999D01*
G01*
X132980000Y-161080601D01*
G75*
G02*
X132730001Y-161330600I-249999J0D01*
G01*
X131429999Y-161330600D01*
G75*
G02*
X131180000Y-161080601I0J249999D01*
G01*
X131180000Y-160255599D01*
G75*
G02*
X131429999Y-160005600I249999J0D01*
G01*
G37*
G36*
G01*
X131429999Y-156880600D02*
X132730001Y-156880600D01*
G75*
G02*
X132980000Y-157130599I0J-249999D01*
G01*
X132980000Y-157955601D01*
G75*
G02*
X132730001Y-158205600I-249999J0D01*
G01*
X131429999Y-158205600D01*
G75*
G02*
X131180000Y-157955601I0J249999D01*
G01*
X131180000Y-157130599D01*
G75*
G02*
X131429999Y-156880600I249999J0D01*
G01*
G37*
%TD*%
%TO.C,C7*%
G36*
G01*
X138846799Y-160005600D02*
X140146801Y-160005600D01*
G75*
G02*
X140396800Y-160255599I0J-249999D01*
G01*
X140396800Y-161080601D01*
G75*
G02*
X140146801Y-161330600I-249999J0D01*
G01*
X138846799Y-161330600D01*
G75*
G02*
X138596800Y-161080601I0J249999D01*
G01*
X138596800Y-160255599D01*
G75*
G02*
X138846799Y-160005600I249999J0D01*
G01*
G37*
G36*
G01*
X138846799Y-156880600D02*
X140146801Y-156880600D01*
G75*
G02*
X140396800Y-157130599I0J-249999D01*
G01*
X140396800Y-157955601D01*
G75*
G02*
X140146801Y-158205600I-249999J0D01*
G01*
X138846799Y-158205600D01*
G75*
G02*
X138596800Y-157955601I0J249999D01*
G01*
X138596800Y-157130599D01*
G75*
G02*
X138846799Y-156880600I249999J0D01*
G01*
G37*
%TD*%
%TO.C,C6*%
G36*
G01*
X185558000Y-140604001D02*
X185558000Y-139303999D01*
G75*
G02*
X185807999Y-139054000I249999J0D01*
G01*
X186633001Y-139054000D01*
G75*
G02*
X186883000Y-139303999I0J-249999D01*
G01*
X186883000Y-140604001D01*
G75*
G02*
X186633001Y-140854000I-249999J0D01*
G01*
X185807999Y-140854000D01*
G75*
G02*
X185558000Y-140604001I0J249999D01*
G01*
G37*
G36*
G01*
X182433000Y-140604001D02*
X182433000Y-139303999D01*
G75*
G02*
X182682999Y-139054000I249999J0D01*
G01*
X183508001Y-139054000D01*
G75*
G02*
X183758000Y-139303999I0J-249999D01*
G01*
X183758000Y-140604001D01*
G75*
G02*
X183508001Y-140854000I-249999J0D01*
G01*
X182682999Y-140854000D01*
G75*
G02*
X182433000Y-140604001I0J249999D01*
G01*
G37*
%TD*%
%TO.C,C5*%
G36*
G01*
X185558000Y-136946401D02*
X185558000Y-135646399D01*
G75*
G02*
X185807999Y-135396400I249999J0D01*
G01*
X186633001Y-135396400D01*
G75*
G02*
X186883000Y-135646399I0J-249999D01*
G01*
X186883000Y-136946401D01*
G75*
G02*
X186633001Y-137196400I-249999J0D01*
G01*
X185807999Y-137196400D01*
G75*
G02*
X185558000Y-136946401I0J249999D01*
G01*
G37*
G36*
G01*
X182433000Y-136946401D02*
X182433000Y-135646399D01*
G75*
G02*
X182682999Y-135396400I249999J0D01*
G01*
X183508001Y-135396400D01*
G75*
G02*
X183758000Y-135646399I0J-249999D01*
G01*
X183758000Y-136946401D01*
G75*
G02*
X183508001Y-137196400I-249999J0D01*
G01*
X182682999Y-137196400D01*
G75*
G02*
X182433000Y-136946401I0J249999D01*
G01*
G37*
%TD*%
%TO.C,C3*%
G36*
G01*
X139740401Y-117921200D02*
X138440399Y-117921200D01*
G75*
G02*
X138190400Y-117671201I0J249999D01*
G01*
X138190400Y-116846199D01*
G75*
G02*
X138440399Y-116596200I249999J0D01*
G01*
X139740401Y-116596200D01*
G75*
G02*
X139990400Y-116846199I0J-249999D01*
G01*
X139990400Y-117671201D01*
G75*
G02*
X139740401Y-117921200I-249999J0D01*
G01*
G37*
G36*
G01*
X139740401Y-121046200D02*
X138440399Y-121046200D01*
G75*
G02*
X138190400Y-120796201I0J249999D01*
G01*
X138190400Y-119971199D01*
G75*
G02*
X138440399Y-119721200I249999J0D01*
G01*
X139740401Y-119721200D01*
G75*
G02*
X139990400Y-119971199I0J-249999D01*
G01*
X139990400Y-120796201D01*
G75*
G02*
X139740401Y-121046200I-249999J0D01*
G01*
G37*
%TD*%
%TO.C,C2*%
G36*
G01*
X127772399Y-160005600D02*
X129072401Y-160005600D01*
G75*
G02*
X129322400Y-160255599I0J-249999D01*
G01*
X129322400Y-161080601D01*
G75*
G02*
X129072401Y-161330600I-249999J0D01*
G01*
X127772399Y-161330600D01*
G75*
G02*
X127522400Y-161080601I0J249999D01*
G01*
X127522400Y-160255599D01*
G75*
G02*
X127772399Y-160005600I249999J0D01*
G01*
G37*
G36*
G01*
X127772399Y-156880600D02*
X129072401Y-156880600D01*
G75*
G02*
X129322400Y-157130599I0J-249999D01*
G01*
X129322400Y-157955601D01*
G75*
G02*
X129072401Y-158205600I-249999J0D01*
G01*
X127772399Y-158205600D01*
G75*
G02*
X127522400Y-157955601I0J249999D01*
G01*
X127522400Y-157130599D01*
G75*
G02*
X127772399Y-156880600I249999J0D01*
G01*
G37*
%TD*%
%TO.C,C1*%
G36*
G01*
X123759199Y-160005600D02*
X125059201Y-160005600D01*
G75*
G02*
X125309200Y-160255599I0J-249999D01*
G01*
X125309200Y-161080601D01*
G75*
G02*
X125059201Y-161330600I-249999J0D01*
G01*
X123759199Y-161330600D01*
G75*
G02*
X123509200Y-161080601I0J249999D01*
G01*
X123509200Y-160255599D01*
G75*
G02*
X123759199Y-160005600I249999J0D01*
G01*
G37*
G36*
G01*
X123759199Y-156880600D02*
X125059201Y-156880600D01*
G75*
G02*
X125309200Y-157130599I0J-249999D01*
G01*
X125309200Y-157955601D01*
G75*
G02*
X125059201Y-158205600I-249999J0D01*
G01*
X123759199Y-158205600D01*
G75*
G02*
X123509200Y-157955601I0J249999D01*
G01*
X123509200Y-157130599D01*
G75*
G02*
X123759199Y-156880600I249999J0D01*
G01*
G37*
%TD*%
M02*
